<svg id="svg" version="1.1" xmlns="http://www.w3.org/2000/svg" xmlns:xlink="http://www.w3.org/1999/xlink" width="400" height="300" viewBox="0, 0, 400,300"><g id="svgg"><path id="path0" d="M131.283 18.964 C 128.147 19.129,125.661 19.412,124.831 19.697 C 124.089 19.951,122.361 20.264,120.993 20.392 C 119.183 20.560,118.403 20.763,118.129 21.138 C 117.862 21.503,116.930 21.762,114.916 22.031 C 113.355 22.239,111.673 22.624,111.178 22.887 C 110.683 23.150,109.467 23.536,108.477 23.744 C 107.487 23.952,106.083 24.433,105.357 24.814 C 104.631 25.195,103.861 25.506,103.647 25.506 C 103.432 25.506,102.892 25.844,102.447 26.257 C 102.002 26.669,101.442 27.007,101.203 27.007 C 100.468 27.007,99.094 27.967,98.750 28.721 C 98.158 30.021,98.303 272.740,98.896 272.968 C 99.158 273.068,99.767 272.854,100.262 272.488 C 100.754 272.124,101.896 271.634,102.799 271.399 C 103.703 271.164,104.742 270.775,105.109 270.536 C 105.476 270.297,106.452 269.953,107.277 269.772 C 108.102 269.592,108.936 269.235,109.130 268.979 C 109.358 268.678,110.488 268.374,112.326 268.117 C 113.890 267.898,115.426 267.582,115.739 267.415 C 117.053 266.712,131.107 265.592,139.985 265.483 C 147.979 265.385,163.781 266.494,166.842 267.368 C 167.914 267.674,169.971 268.014,171.411 268.122 C 173.418 268.274,174.218 268.468,174.837 268.955 C 175.324 269.338,176.316 269.669,177.342 269.790 C 178.276 269.900,179.503 270.204,180.068 270.465 C 180.633 270.727,182.267 271.141,183.700 271.386 C 185.132 271.630,186.711 272.041,187.208 272.298 C 187.705 272.555,189.045 272.898,190.187 273.060 C 192.630 273.406,193.150 273.578,193.354 274.111 C 193.437 274.328,194.224 274.602,195.102 274.719 C 195.981 274.836,197.307 275.179,198.050 275.480 C 198.792 275.782,200.735 276.246,202.366 276.512 C 203.998 276.778,205.720 277.196,206.193 277.441 C 206.681 277.693,208.320 277.962,209.978 278.061 C 212.080 278.188,213.326 278.428,214.404 278.914 C 215.448 279.385,216.771 279.651,218.755 279.786 C 220.323 279.893,222.416 280.187,223.406 280.441 C 228.208 281.668,271.045 281.685,275.930 280.461 C 276.927 280.211,279.322 279.885,281.254 279.737 C 283.916 279.533,284.908 279.339,285.351 278.938 C 285.780 278.550,286.732 278.346,288.899 278.175 C 290.599 278.042,292.260 277.736,292.797 277.459 C 293.311 277.193,294.856 276.754,296.229 276.483 C 297.601 276.213,298.995 275.753,299.325 275.460 C 299.655 275.168,300.195 274.880,300.525 274.820 C 301.123 274.711,301.126 274.402,301.308 204.197 C 301.604 90.010,301.645 25.393,301.421 24.831 C 301.162 24.184,300.615 24.167,299.452 24.768 C 298.960 25.022,297.650 25.308,296.541 25.404 C 295.345 25.506,294.096 25.823,293.473 26.182 C 292.650 26.656,291.547 26.844,288.372 27.051 C 286.144 27.197,283.624 27.516,282.773 27.762 C 281.122 28.238,270.910 29.105,266.917 29.109 C 265.596 29.110,262.288 29.384,259.565 29.717 C 251.955 30.649,226.981 30.663,221.374 29.739 C 219.266 29.391,216.841 29.107,215.985 29.107 C 213.625 29.107,206.865 28.220,205.468 27.728 C 204.789 27.488,203.011 27.212,201.517 27.114 C 199.500 26.982,198.490 26.763,197.599 26.264 C 196.902 25.873,195.595 25.510,194.480 25.399 C 193.424 25.293,192.141 24.995,191.629 24.738 C 191.117 24.480,189.685 24.150,188.447 24.005 C 185.660 23.678,183.133 23.176,182.146 22.755 C 181.733 22.578,179.809 22.269,177.869 22.066 C 175.343 21.803,174.181 21.551,173.771 21.180 C 173.340 20.791,172.314 20.595,169.645 20.394 C 167.690 20.247,165.349 19.926,164.441 19.680 C 161.037 18.761,142.647 18.363,131.283 18.964 M172.329 34.035 C 172.694 34.270,173.668 34.556,174.494 34.671 C 175.319 34.786,176.602 35.119,177.344 35.412 C 178.087 35.705,180.383 36.178,182.446 36.463 C 184.509 36.748,186.669 37.169,187.247 37.397 C 187.824 37.626,190.053 37.935,192.198 38.084 C 195.077 38.284,196.386 38.507,197.194 38.935 C 197.990 39.356,199.185 39.566,201.556 39.702 C 203.352 39.804,205.762 40.107,206.912 40.375 C 214.958 42.246,268.815 42.252,277.513 40.382 C 278.719 40.123,281.285 39.830,283.214 39.731 C 286.463 39.565,287.814 39.367,288.979 38.886 C 289.283 38.761,289.609 38.991,289.954 39.575 C 290.483 40.470,290.806 259.624,290.282 262.241 C 290.085 263.230,288.955 264.066,287.817 264.066 C 287.495 264.066,286.509 264.402,285.626 264.813 C 284.743 265.224,283.600 265.562,283.086 265.563 C 282.572 265.565,281.781 265.858,281.328 266.214 C 280.667 266.734,279.872 266.914,277.311 267.123 C 275.555 267.266,273.511 267.580,272.768 267.820 C 267.580 269.494,231.735 269.479,225.039 267.799 C 224.122 267.569,221.556 267.260,219.338 267.114 C 216.182 266.905,215.075 266.715,214.254 266.241 C 213.606 265.868,212.398 265.572,211.103 265.468 C 209.947 265.376,208.205 265.023,207.230 264.683 C 206.255 264.344,204.913 264.066,204.247 264.066 C 202.584 264.066,199.673 263.498,198.050 262.856 C 197.307 262.563,195.635 262.225,194.335 262.105 C 192.708 261.956,191.807 261.724,191.446 261.364 C 191.155 261.073,190.006 260.680,188.860 260.481 C 187.725 260.283,186.594 259.951,186.347 259.741 C 186.099 259.532,184.637 259.142,183.098 258.873 C 181.558 258.605,179.870 258.166,179.347 257.898 C 178.823 257.630,177.472 257.289,176.343 257.142 C 174.854 256.948,174.046 256.667,173.395 256.119 C 172.895 255.699,172.118 255.364,171.641 255.364 C 170.541 255.364,169.919 254.726,169.656 253.329 C 169.282 251.349,169.784 35.665,170.165 34.574 C 170.538 33.503,171.231 33.330,172.329 34.035 M155.068 40.810 C 157.456 42.442,159.445 47.055,158.115 47.877 C 157.936 47.988,157.548 48.637,157.252 49.320 C 156.580 50.872,155.348 52.213,154.593 52.213 C 154.278 52.213,153.676 52.483,153.256 52.813 C 152.578 53.347,152.031 53.414,148.340 53.422 C 141.084 53.438,129.864 54.178,128.836 54.710 C 128.335 54.969,127.233 55.273,126.386 55.385 C 125.504 55.502,124.433 55.894,123.880 56.302 C 123.300 56.730,122.498 57.014,121.871 57.014 C 121.297 57.014,119.939 57.451,118.853 57.984 C 114.080 60.329,109.669 59.327,107.595 55.426 C 106.625 53.602,106.518 50.413,107.427 50.413 C 107.566 50.413,107.769 50.005,107.878 49.508 C 108.148 48.280,109.964 46.635,111.537 46.195 C 112.247 45.996,112.828 45.738,112.828 45.621 C 112.828 45.291,114.273 44.711,115.095 44.711 C 115.501 44.711,116.114 44.388,116.458 43.992 C 116.918 43.463,117.531 43.218,118.782 43.063 C 119.716 42.947,121.020 42.613,121.680 42.320 C 122.958 41.752,125.546 41.253,128.732 40.958 C 129.805 40.859,131.223 40.632,131.883 40.455 C 134.023 39.879,137.732 39.682,145.707 39.721 L 153.530 39.760 155.068 40.810 M185.572 52.217 C 180.231 53.877,181.566 62.290,187.295 63.065 C 188.341 63.207,189.546 63.578,189.973 63.891 C 190.399 64.204,191.516 64.556,192.454 64.674 C 193.392 64.791,194.659 65.141,195.268 65.452 C 195.877 65.762,196.748 66.017,197.204 66.017 C 198.668 66.017,204.457 66.935,205.889 67.395 C 206.652 67.640,209.150 67.954,211.440 68.093 C 214.651 68.289,215.913 68.491,216.954 68.975 C 217.965 69.446,218.909 69.606,220.705 69.611 C 222.026 69.615,225.401 69.886,228.207 70.213 C 234.715 70.972,248.633 71.051,254.614 70.363 C 256.759 70.116,260.540 69.839,263.016 69.747 C 266.265 69.626,268.024 69.417,269.341 68.997 C 270.344 68.677,272.235 68.280,273.542 68.114 C 274.861 67.947,275.972 67.655,276.038 67.457 C 276.104 67.261,276.442 66.817,276.789 66.469 C 278.670 64.586,278.734 61.514,276.931 59.558 C 276.250 58.819,275.524 58.215,275.317 58.215 C 275.111 58.215,274.774 58.012,274.569 57.764 C 274.071 57.165,269.888 57.157,267.310 57.750 C 260.470 59.325,225.558 59.316,219.298 57.738 C 218.359 57.501,215.653 57.195,213.284 57.059 C 209.960 56.867,208.790 56.687,208.159 56.274 C 207.668 55.952,206.377 55.640,204.933 55.495 C 203.609 55.361,201.721 54.973,200.737 54.633 C 199.753 54.292,198.552 54.014,198.068 54.014 C 196.772 54.014,193.055 53.184,192.070 52.675 C 191.008 52.125,186.816 51.830,185.572 52.217 M154.800 72.610 C 156.663 74.160,156.765 74.332,157.095 76.450 C 157.449 78.726,156.999 80.653,155.803 81.976 C 154.073 83.891,153.538 84.047,147.673 84.348 C 144.765 84.498,141.238 84.750,139.835 84.909 C 138.432 85.067,135.731 85.283,133.833 85.388 C 131.120 85.537,130.206 85.702,129.558 86.158 C 129.044 86.520,127.803 86.854,126.257 87.047 C 124.895 87.217,123.489 87.546,123.131 87.779 C 122.774 88.012,121.559 88.433,120.431 88.714 C 119.303 88.996,117.996 89.506,117.528 89.849 C 115.999 90.969,111.808 90.728,109.897 89.411 C 107.149 87.516,106.016 84.053,107.408 81.801 C 107.749 81.250,108.027 80.609,108.027 80.377 C 108.027 79.656,109.681 78.099,110.679 77.880 C 111.201 77.766,111.628 77.564,111.628 77.432 C 111.628 77.133,112.841 76.644,114.695 76.195 C 115.474 76.007,116.264 75.668,116.452 75.442 C 116.639 75.216,117.467 74.942,118.292 74.832 C 119.226 74.708,120.069 74.375,120.529 73.950 C 121.110 73.411,121.757 73.226,123.574 73.075 C 124.843 72.970,126.489 72.661,127.232 72.387 C 129.414 71.582,134.587 71.206,144.095 71.161 L 153.007 71.118 154.800 72.610 M184.921 83.825 C 184.385 84.001,183.942 84.286,183.938 84.458 C 183.933 84.630,183.528 85.302,183.037 85.950 C 181.565 87.896,181.719 90.341,183.421 92.063 C 185.509 94.174,185.848 94.421,186.947 94.629 C 187.524 94.738,188.672 95.080,189.497 95.389 C 190.323 95.697,192.483 96.185,194.299 96.472 C 196.114 96.760,197.961 97.180,198.403 97.406 C 198.844 97.632,200.843 97.939,202.844 98.088 C 205.621 98.295,206.620 98.484,207.065 98.887 C 207.496 99.276,208.495 99.485,210.876 99.683 C 212.651 99.830,214.846 100.149,215.754 100.390 C 222.396 102.160,264.366 101.953,272.418 100.111 C 277.377 98.977,279.914 94.743,277.495 91.638 C 276.072 89.812,275.642 89.427,274.665 89.104 C 273.268 88.643,262.930 89.022,259.265 89.669 C 254.940 90.432,229.276 90.415,225.894 89.647 C 224.622 89.359,222.717 89.122,221.660 89.122 C 218.557 89.122,210.605 88.257,209.302 87.778 C 208.642 87.535,206.584 87.219,204.728 87.077 C 202.227 86.884,201.205 86.683,200.783 86.301 C 200.469 86.017,199.379 85.667,198.361 85.523 C 197.343 85.379,195.675 84.990,194.654 84.659 C 190.965 83.460,187.054 83.126,184.921 83.825 M153.637 102.740 C 155.097 103.317,156.703 104.743,157.233 105.933 C 157.416 106.342,157.760 107.014,157.998 107.427 C 159.271 109.634,156.474 114.822,153.704 115.389 C 153.255 115.481,152.416 115.680,151.838 115.832 C 150.591 116.160,143.524 116.660,135.155 117.012 C 130.783 117.197,128.884 117.391,128.250 117.718 C 127.770 117.967,126.163 118.405,124.679 118.691 C 123.195 118.978,121.575 119.447,121.080 119.733 C 120.585 120.019,119.775 120.349,119.280 120.466 C 118.785 120.583,118.144 120.932,117.856 121.241 C 116.639 122.545,111.252 122.483,110.016 121.151 C 109.598 120.699,109.125 120.330,108.965 120.330 C 108.445 120.330,106.827 116.684,106.827 115.512 C 106.827 113.479,109.258 109.527,110.509 109.527 C 110.674 109.527,111.122 109.190,111.504 108.777 C 111.887 108.365,112.511 108.027,112.891 108.027 C 113.272 108.027,114.190 107.710,114.931 107.323 C 115.672 106.936,117.157 106.445,118.230 106.234 C 119.302 106.022,120.503 105.648,120.897 105.403 C 121.291 105.158,122.458 104.853,123.490 104.725 C 124.586 104.589,125.723 104.236,126.224 103.876 C 126.969 103.340,127.849 103.213,132.933 102.909 C 136.152 102.716,139.662 102.456,140.735 102.331 C 144.421 101.901,152.135 102.146,153.637 102.740 M185.071 115.117 C 184.287 115.524,183.646 116.000,183.646 116.175 C 183.646 116.350,183.308 116.894,182.896 117.384 C 181.881 118.590,181.799 121.784,182.758 122.743 C 183.094 123.079,183.496 123.687,183.650 124.093 C 183.805 124.499,184.132 124.831,184.377 124.831 C 184.622 124.831,185.064 125.087,185.360 125.399 C 185.722 125.783,186.798 126.121,188.668 126.440 C 190.193 126.700,191.829 127.113,192.304 127.359 C 192.779 127.605,194.390 127.928,195.882 128.078 C 197.764 128.267,198.915 128.547,199.634 128.991 C 200.288 129.396,201.166 129.632,202.013 129.632 C 202.751 129.632,204.423 129.914,205.728 130.258 C 207.034 130.602,209.587 130.999,211.403 131.140 C 216.848 131.563,220.577 132.014,222.956 132.536 C 225.690 133.136,258.702 133.246,261.665 132.664 C 263.369 132.330,266.152 131.986,271.511 131.446 C 275.163 131.079,275.412 130.967,276.972 128.993 C 278.557 126.988,278.555 122.431,276.969 122.431 C 276.813 122.431,276.485 122.046,276.242 121.575 C 275.365 119.879,265.197 119.688,260.165 121.272 C 256.745 122.349,228.103 122.385,225.206 121.316 C 223.932 120.846,222.441 120.604,220.105 120.487 C 218.290 120.397,215.521 120.062,213.953 119.743 C 212.386 119.424,209.157 118.946,206.779 118.680 C 204.401 118.413,202.090 118.007,201.643 117.776 C 201.196 117.544,199.592 117.231,198.079 117.079 C 196.340 116.905,195.138 116.631,194.811 116.335 C 194.526 116.078,193.291 115.658,192.065 115.403 C 190.839 115.147,189.700 114.801,189.532 114.633 C 188.979 114.081,186.561 114.343,185.071 115.117 M186.286 146.120 C 185.839 146.471,185.069 146.900,184.572 147.073 C 184.076 147.245,183.594 147.628,183.500 147.922 C 183.407 148.217,183.064 148.699,182.738 148.994 C 181.356 150.245,182.895 156.339,184.594 156.339 C 184.767 156.339,185.582 156.677,186.405 157.090 C 187.349 157.565,188.785 157.941,190.298 158.110 C 191.985 158.299,192.887 158.553,193.346 158.970 C 193.780 159.363,194.626 159.623,195.872 159.746 C 196.903 159.847,198.244 160.139,198.854 160.393 C 199.463 160.648,201.186 160.984,202.682 161.140 C 207.018 161.591,210.061 162.057,210.913 162.400 C 211.348 162.575,214.414 162.887,217.727 163.095 C 222.535 163.395,223.959 163.584,224.779 164.031 C 226.370 164.898,258.386 164.895,260.465 164.028 C 261.526 163.585,263.100 163.403,267.817 163.178 C 272.963 162.934,273.934 162.811,274.632 162.317 C 275.079 162.000,275.562 161.740,275.707 161.740 C 275.851 161.740,276.430 161.167,276.994 160.465 C 279.016 157.951,278.109 153.479,275.344 152.328 C 274.559 152.001,262.836 152.091,260.015 152.446 C 253.979 153.205,249.722 153.376,239.323 153.274 C 231.174 153.195,227.968 153.064,227.311 152.783 C 226.767 152.550,224.116 152.305,220.559 152.160 C 215.426 151.950,214.519 151.837,213.213 151.242 C 212.213 150.787,210.780 150.485,208.862 150.327 C 207.289 150.197,205.394 149.883,204.651 149.630 C 203.908 149.377,201.950 149.009,200.300 148.812 C 198.650 148.615,196.665 148.207,195.889 147.906 C 195.113 147.604,193.449 147.230,192.190 147.073 C 190.691 146.887,189.780 146.622,189.549 146.306 C 188.948 145.484,187.219 145.386,186.286 146.120 " stroke="none" fill="#36362e" fill-rule="evenodd"></path><path id="path1" d="M0.000 150.038 L 0.000 300.075 200.000 300.075 L 400.000 300.075 400.000 150.038 L 400.000 0.000 200.000 0.000 L 0.000 0.000 0.000 150.038 M159.237 17.973 C 165.431 18.186,166.298 18.279,167.221 18.823 C 167.964 19.261,169.055 19.491,171.075 19.635 C 172.625 19.746,174.771 20.091,175.844 20.402 C 176.917 20.713,179.513 21.174,181.612 21.425 C 183.712 21.676,185.821 22.084,186.298 22.331 C 186.776 22.578,188.379 22.901,189.862 23.050 C 191.761 23.241,192.814 23.501,193.428 23.933 C 193.959 24.307,195.000 24.612,196.099 24.715 C 197.089 24.808,198.697 25.159,199.672 25.495 C 200.647 25.831,201.923 26.107,202.507 26.107 C 204.298 26.107,208.596 26.749,210.653 27.324 C 211.996 27.699,214.482 27.958,218.636 28.154 C 222.106 28.318,224.947 28.588,225.325 28.790 C 227.059 29.719,246.462 29.942,251.913 29.097 C 256.099 28.448,259.245 28.199,266.617 27.934 C 271.086 27.774,275.444 27.460,276.819 27.199 C 279.748 26.644,284.680 26.100,286.749 26.104 C 287.589 26.105,289.324 25.839,290.604 25.511 C 291.884 25.184,293.942 24.790,295.176 24.637 C 296.618 24.458,297.636 24.162,298.028 23.807 C 298.858 23.056,302.137 23.024,302.872 23.760 C 303.483 24.371,303.568 64.097,303.074 118.230 C 302.913 135.806,302.648 178.207,302.484 212.453 L 302.186 274.719 301.506 275.241 C 301.131 275.528,300.553 276.032,300.220 276.361 C 299.887 276.689,298.887 277.096,297.999 277.265 C 297.110 277.433,296.232 277.697,296.046 277.851 C 295.647 278.183,292.195 278.950,289.918 279.213 C 289.035 279.315,287.820 279.592,287.217 279.828 C 286.615 280.065,284.648 280.395,282.848 280.561 C 280.731 280.757,279.303 281.041,278.808 281.366 C 276.463 282.902,223.836 282.879,220.886 281.341 C 220.260 281.014,218.685 280.706,216.812 280.544 C 215.132 280.398,212.907 280.006,211.866 279.674 C 210.826 279.342,209.486 279.070,208.888 279.070 C 207.366 279.070,203.296 278.259,202.317 277.761 C 201.868 277.532,200.555 277.248,199.400 277.130 C 197.961 276.983,197.101 276.731,196.670 276.333 C 196.302 275.992,195.252 275.623,194.140 275.444 C 193.094 275.276,191.892 274.945,191.468 274.709 C 191.044 274.473,189.561 274.073,188.171 273.821 C 186.782 273.568,185.229 273.153,184.720 272.899 C 184.212 272.644,182.716 272.299,181.395 272.133 C 179.819 271.935,178.789 271.642,178.395 271.281 C 178.055 270.969,177.078 270.641,176.144 270.524 C 175.236 270.410,173.953 270.073,173.293 269.774 C 172.633 269.476,171.215 269.152,170.143 269.056 C 165.707 268.657,162.715 268.216,161.150 267.731 C 158.623 266.948,123.662 266.949,121.380 267.732 C 120.043 268.191,118.550 268.438,113.278 269.072 C 112.453 269.171,111.305 269.484,110.728 269.768 C 110.150 270.052,109.077 270.361,108.344 270.455 C 107.518 270.561,106.833 270.855,106.544 271.226 C 106.287 271.557,105.536 271.921,104.876 272.036 C 104.216 272.150,102.819 272.653,101.771 273.152 C 100.723 273.651,99.333 274.157,98.683 274.276 C 96.426 274.689,96.624 286.531,96.624 151.007 L 96.624 29.216 97.586 27.964 C 98.176 27.197,98.961 26.581,99.612 26.372 C 100.197 26.186,100.945 25.791,101.275 25.496 C 101.605 25.201,102.445 24.809,103.141 24.624 C 103.837 24.439,104.521 24.083,104.661 23.833 C 104.801 23.582,105.682 23.199,106.617 22.982 C 107.553 22.764,108.489 22.447,108.698 22.277 C 108.906 22.106,110.293 21.741,111.778 21.464 C 113.263 21.187,114.884 20.819,115.379 20.646 C 116.456 20.271,118.454 19.870,120.402 19.638 C 121.183 19.545,122.020 19.273,122.260 19.032 C 122.916 18.377,125.395 18.009,129.448 17.966 C 131.448 17.945,134.569 17.823,136.384 17.695 C 139.738 17.458,146.709 17.543,159.237 17.973 M171.480 35.729 C 170.789 36.848,170.121 252.282,170.805 253.557 C 171.103 254.113,171.676 254.425,173.064 254.788 C 174.087 255.055,175.097 255.412,175.309 255.580 C 175.521 255.749,176.899 256.107,178.372 256.376 C 179.846 256.645,181.352 257.062,181.719 257.302 C 182.087 257.543,183.434 257.870,184.712 258.029 C 186.278 258.223,187.322 258.529,187.915 258.967 C 188.403 259.328,189.549 259.724,190.496 259.859 C 191.432 259.992,192.671 260.302,193.248 260.549 C 193.826 260.796,195.782 261.228,197.595 261.510 C 199.408 261.793,201.255 262.211,201.700 262.441 C 202.144 262.671,203.699 262.942,205.155 263.044 C 207.011 263.173,208.205 263.430,209.152 263.904 C 210.042 264.349,211.339 264.647,212.955 264.778 C 214.304 264.887,215.991 265.182,216.704 265.434 C 217.417 265.686,219.689 266.026,221.753 266.191 C 230.781 266.912,232.166 267.060,233.158 267.405 C 234.980 268.038,260.855 268.139,264.398 267.526 C 267.104 267.059,269.508 266.774,275.833 266.171 C 277.435 266.019,279.123 265.703,279.583 265.469 C 280.044 265.235,281.280 264.895,282.331 264.714 C 283.462 264.518,284.392 264.178,284.610 263.881 C 284.836 263.572,285.660 263.285,286.749 263.138 C 288.008 262.967,288.673 262.709,289.047 262.248 C 289.608 261.555,289.901 40.748,289.341 40.403 C 288.762 40.045,281.877 40.740,280.876 41.258 C 280.014 41.703,278.642 41.840,272.925 42.050 C 269.125 42.189,264.396 42.541,262.416 42.831 C 257.059 43.617,226.665 43.618,221.305 42.834 C 219.325 42.544,214.794 42.190,211.238 42.047 C 206.039 41.839,204.573 41.685,203.759 41.265 C 203.116 40.932,201.536 40.644,199.423 40.475 C 197.595 40.328,195.393 40.003,194.530 39.752 C 193.667 39.502,191.642 39.165,190.029 39.004 C 185.607 38.563,183.350 38.186,182.901 37.814 C 182.679 37.629,181.168 37.335,179.545 37.159 C 177.294 36.916,176.341 36.670,175.528 36.124 C 174.393 35.363,171.860 35.115,171.480 35.729 M137.223 40.825 C 136.530 40.962,135.689 41.220,135.355 41.399 C 135.021 41.578,132.813 41.846,130.448 41.996 C 127.876 42.159,125.672 42.457,124.964 42.738 C 124.313 42.996,122.523 43.468,120.985 43.788 C 119.447 44.108,117.892 44.563,117.529 44.801 C 117.167 45.038,116.440 45.327,115.914 45.443 C 115.387 45.558,114.605 45.930,114.175 46.268 C 113.744 46.607,112.882 46.998,112.258 47.138 C 109.381 47.785,107.674 51.360,108.624 54.752 C 108.834 55.501,109.103 56.114,109.222 56.114 C 109.342 56.114,109.831 56.482,110.309 56.931 C 111.667 58.209,116.291 58.376,117.596 57.194 C 117.866 56.950,118.761 56.591,119.584 56.396 C 120.407 56.201,121.688 55.786,122.431 55.473 C 123.173 55.160,124.427 54.788,125.217 54.646 C 126.007 54.503,126.919 54.146,127.244 53.852 C 127.730 53.413,128.858 53.247,133.550 52.924 C 136.692 52.708,139.396 52.449,139.557 52.349 C 139.718 52.250,142.784 52.057,146.369 51.921 C 153.375 51.655,153.896 51.554,155.374 50.173 C 157.314 48.361,157.010 43.185,154.905 42.181 C 154.302 41.893,153.627 41.400,153.406 41.084 C 152.968 40.459,140.118 40.253,137.223 40.825 M192.470 51.503 C 193.939 51.754,195.428 52.148,195.778 52.377 C 196.128 52.607,197.705 52.913,199.283 53.058 C 201.380 53.251,202.386 53.487,203.026 53.937 C 203.663 54.386,204.563 54.599,206.336 54.721 C 207.675 54.813,209.363 55.100,210.087 55.359 C 210.811 55.618,213.158 55.958,215.304 56.114 C 224.661 56.796,226.510 56.981,227.771 57.361 C 229.915 58.008,252.395 57.926,257.914 57.251 C 262.645 56.672,269.981 56.101,272.468 56.117 C 275.142 56.134,277.737 57.706,278.634 59.853 C 279.517 61.966,279.019 66.702,277.875 67.065 C 277.559 67.165,277.223 67.489,277.130 67.784 C 276.705 69.121,272.371 70.162,265.859 70.491 C 261.799 70.696,260.344 70.881,259.415 71.312 C 257.554 72.174,227.723 72.167,225.656 71.304 C 224.710 70.908,223.081 70.666,220.208 70.494 C 217.953 70.359,215.299 70.038,214.310 69.782 C 213.320 69.525,210.978 69.181,209.106 69.017 C 204.272 68.594,201.957 68.239,200.750 67.734 C 200.173 67.493,198.552 67.204,197.149 67.094 C 195.201 66.939,194.351 66.726,193.548 66.188 C 192.877 65.738,191.868 65.425,190.749 65.320 C 189.788 65.229,188.703 64.960,188.340 64.722 C 187.976 64.484,186.934 64.122,186.024 63.918 C 179.856 62.538,179.311 52.148,185.354 51.160 C 185.983 51.057,186.699 50.932,186.947 50.882 C 187.550 50.761,189.246 50.952,192.470 51.503 M137.114 72.301 C 135.204 72.419,133.485 72.612,133.293 72.731 C 132.962 72.936,128.574 73.590,124.681 74.016 C 123.691 74.124,122.603 74.393,122.263 74.613 C 121.923 74.833,120.919 75.150,120.032 75.318 C 119.131 75.489,118.173 75.888,117.863 76.222 C 117.556 76.550,117.262 76.819,117.209 76.819 C 116.399 76.819,113.804 77.528,113.449 77.846 C 113.190 78.079,112.559 78.381,112.047 78.519 C 108.378 79.506,106.807 86.728,109.974 88.051 C 110.524 88.281,111.257 88.751,111.602 89.096 C 112.567 90.062,115.777 90.003,116.646 89.004 C 117.030 88.562,117.772 88.200,118.569 88.065 C 119.283 87.945,120.148 87.662,120.492 87.437 C 121.326 86.890,123.881 86.129,124.895 86.125 C 125.343 86.123,126.413 85.844,127.273 85.505 C 128.173 85.150,130.120 84.775,131.860 84.621 C 133.523 84.473,135.491 84.123,136.234 83.841 C 137.336 83.424,138.989 83.305,145.236 83.197 L 152.888 83.063 154.464 81.448 C 156.935 78.914,156.877 76.409,154.288 73.849 L 152.588 72.168 146.587 72.127 C 143.286 72.104,139.023 72.183,137.114 72.301 M190.491 82.418 C 190.873 82.661,192.155 82.933,193.342 83.024 C 194.868 83.141,195.806 83.388,196.549 83.871 C 197.190 84.286,198.301 84.625,199.400 84.740 C 200.390 84.843,201.943 85.192,202.851 85.515 C 203.758 85.838,205.086 86.106,205.800 86.112 C 207.690 86.126,214.181 87.007,215.110 87.375 C 215.547 87.548,219.010 87.864,222.807 88.076 C 227.684 88.349,230.238 88.623,231.509 89.009 C 234.030 89.774,247.424 89.778,250.863 89.014 C 252.267 88.702,255.707 88.407,260.015 88.228 C 263.811 88.070,268.267 87.863,269.917 87.766 C 276.517 87.382,279.070 89.240,279.070 94.427 C 279.070 97.309,276.953 100.525,275.057 100.525 C 274.668 100.525,273.971 100.823,273.507 101.188 C 272.725 101.803,272.223 101.866,266.389 102.077 C 262.937 102.201,258.470 102.539,256.463 102.828 C 251.098 103.599,232.591 103.609,228.056 102.844 C 226.322 102.551,222.474 102.192,219.504 102.047 C 214.929 101.822,213.922 101.686,212.915 101.153 C 212.129 100.738,211.162 100.523,210.064 100.519 C 209.150 100.515,207.524 100.306,206.452 100.054 C 204.215 99.529,202.321 99.205,198.500 98.695 C 197.014 98.497,195.259 98.101,194.599 97.815 C 193.938 97.529,192.363 97.201,191.098 97.086 C 189.404 96.933,188.662 96.727,188.281 96.307 C 187.997 95.993,187.277 95.651,186.680 95.547 C 185.351 95.316,183.687 94.224,182.263 92.648 L 181.191 91.461 181.293 88.464 C 181.382 85.851,181.476 85.402,182.026 84.957 C 182.374 84.676,182.809 84.164,182.994 83.818 C 183.179 83.473,183.705 83.096,184.163 82.982 C 184.621 82.868,185.199 82.594,185.446 82.375 C 186.372 81.553,189.166 81.577,190.491 82.418 M135.334 103.877 C 131.735 104.055,129.469 104.315,128.132 104.705 C 127.059 105.017,125.439 105.362,124.531 105.469 C 123.502 105.592,122.637 105.894,122.234 106.272 C 121.807 106.672,120.928 106.960,119.650 107.118 C 118.585 107.250,117.390 107.566,116.996 107.819 C 116.602 108.073,115.488 108.507,114.522 108.784 C 113.556 109.061,112.288 109.612,111.704 110.008 C 111.121 110.404,110.528 110.728,110.386 110.728 C 110.244 110.728,110.128 110.915,110.128 111.143 C 110.128 111.372,109.803 111.771,109.407 112.031 C 107.458 113.308,108.196 118.566,110.537 120.078 C 112.359 121.254,115.299 121.503,116.333 120.567 C 116.638 120.291,117.490 119.930,118.226 119.764 C 118.961 119.599,119.721 119.248,119.913 118.985 C 120.299 118.457,121.859 117.929,123.033 117.929 C 123.449 117.929,124.260 117.683,124.836 117.382 C 126.816 116.344,136.568 115.232,146.437 114.917 C 150.150 114.799,153.217 114.686,153.253 114.666 C 153.289 114.645,153.732 114.224,154.239 113.728 C 154.745 113.233,155.340 112.828,155.560 112.828 C 156.223 112.828,156.744 110.319,156.538 108.118 C 156.107 103.498,153.514 102.980,135.334 103.877 M191.092 113.837 C 191.692 114.280,192.684 114.621,193.727 114.743 C 194.647 114.852,195.828 115.161,196.350 115.431 C 196.872 115.702,198.245 116.029,199.400 116.158 C 202.999 116.562,205.573 117.020,206.237 117.375 C 206.588 117.563,209.017 117.887,211.635 118.095 C 215.341 118.390,216.521 118.588,216.966 118.991 C 217.429 119.410,218.443 119.553,222.303 119.745 C 224.923 119.876,227.661 120.162,228.387 120.380 C 230.215 120.931,252.410 120.921,255.664 120.369 C 256.902 120.158,260.413 119.883,263.466 119.758 C 267.720 119.582,269.242 119.412,269.978 119.029 C 271.171 118.408,273.168 118.377,273.662 118.972 C 273.864 119.215,274.494 119.501,275.062 119.608 C 280.551 120.638,280.263 131.229,274.719 132.187 C 274.059 132.301,272.843 132.580,272.018 132.806 C 265.246 134.663,221.312 134.659,214.774 132.801 C 213.910 132.556,211.342 132.232,209.067 132.081 C 205.840 131.868,204.805 131.694,204.358 131.289 C 203.984 130.950,202.918 130.674,201.292 130.493 C 199.921 130.340,198.086 129.949,197.213 129.624 C 196.340 129.299,195.241 129.032,194.770 129.032 C 193.405 129.032,189.254 128.098,188.605 127.645 C 188.280 127.418,187.562 127.232,187.010 127.232 C 185.939 127.232,185.011 126.849,184.185 126.066 C 181.213 123.247,181.406 123.627,181.293 120.351 C 181.185 117.216,181.267 117.000,183.264 115.166 C 185.826 112.811,188.977 112.277,191.092 113.837 M191.272 145.501 C 192.111 145.821,193.837 146.238,195.107 146.427 C 196.376 146.616,198.132 147.019,199.008 147.322 C 199.884 147.626,201.883 147.970,203.451 148.087 C 205.530 148.242,206.579 148.468,207.325 148.923 C 208.089 149.388,209.118 149.601,211.379 149.763 C 213.046 149.881,215.151 150.187,216.057 150.442 C 221.658 152.017,260.606 152.125,270.565 150.594 C 275.307 149.865,278.770 152.230,279.009 156.359 C 279.312 161.589,276.518 164.141,270.491 164.141 C 269.311 164.141,266.808 164.407,264.930 164.733 C 257.238 166.065,227.597 166.070,220.848 164.740 C 219.177 164.410,217.179 164.138,216.407 164.135 C 213.866 164.124,207.042 163.286,205.601 162.807 C 204.823 162.549,202.736 162.224,200.962 162.086 C 198.286 161.877,197.621 161.724,197.049 161.187 C 196.588 160.754,195.969 160.538,195.179 160.534 C 194.530 160.530,193.053 160.193,191.898 159.785 C 190.743 159.377,189.392 159.041,188.897 159.039 C 187.115 159.033,184.467 157.922,183.196 156.647 C 181.328 154.772,181.400 154.936,181.289 152.276 C 181.132 148.483,181.408 147.892,184.248 145.938 C 186.385 144.468,188.256 144.352,191.272 145.501 " stroke="none" fill="#fbfbfb" fill-rule="evenodd"></path><path id="path2" d="M136.384 17.695 C 134.569 17.823,131.448 17.945,129.448 17.966 C 125.395 18.009,122.916 18.377,122.260 19.032 C 122.020 19.273,121.183 19.545,120.402 19.638 C 118.454 19.870,116.456 20.271,115.379 20.646 C 114.884 20.819,113.263 21.187,111.778 21.464 C 110.293 21.741,108.906 22.106,108.698 22.277 C 108.489 22.447,107.553 22.764,106.617 22.982 C 105.682 23.199,104.801 23.582,104.661 23.833 C 104.521 24.083,103.837 24.439,103.141 24.624 C 102.445 24.809,101.605 25.201,101.275 25.496 C 100.945 25.791,100.197 26.186,99.612 26.372 C 98.961 26.581,98.176 27.197,97.586 27.964 L 96.624 29.216 96.624 151.007 C 96.624 286.531,96.426 274.689,98.683 274.276 C 99.333 274.157,100.723 273.651,101.771 273.152 C 102.819 272.653,104.216 272.150,104.876 272.036 C 105.536 271.921,106.287 271.557,106.544 271.226 C 106.833 270.855,107.518 270.561,108.344 270.455 C 109.077 270.361,110.150 270.052,110.728 269.768 C 111.305 269.484,112.453 269.171,113.278 269.072 C 118.550 268.438,120.043 268.191,121.380 267.732 C 123.662 266.949,158.623 266.948,161.150 267.731 C 162.715 268.216,165.707 268.657,170.143 269.056 C 171.215 269.152,172.633 269.476,173.293 269.774 C 173.953 270.073,175.236 270.410,176.144 270.524 C 177.078 270.641,178.055 270.969,178.395 271.281 C 178.789 271.642,179.819 271.935,181.395 272.133 C 182.716 272.299,184.212 272.644,184.720 272.899 C 185.229 273.153,186.782 273.568,188.171 273.821 C 189.561 274.073,191.044 274.473,191.468 274.709 C 191.892 274.945,193.094 275.276,194.140 275.444 C 195.252 275.623,196.302 275.992,196.670 276.333 C 197.101 276.731,197.961 276.983,199.400 277.130 C 200.555 277.248,201.868 277.532,202.317 277.761 C 203.296 278.259,207.366 279.070,208.888 279.070 C 209.486 279.070,210.826 279.342,211.866 279.674 C 212.907 280.006,215.132 280.398,216.812 280.544 C 218.685 280.706,220.260 281.014,220.886 281.341 C 223.836 282.879,276.463 282.902,278.808 281.366 C 279.303 281.041,280.731 280.757,282.848 280.561 C 284.648 280.395,286.615 280.065,287.217 279.828 C 287.820 279.592,289.035 279.315,289.918 279.213 C 292.195 278.950,295.647 278.183,296.046 277.851 C 296.232 277.697,297.110 277.433,297.999 277.265 C 298.887 277.096,299.887 276.689,300.220 276.361 C 300.553 276.032,301.131 275.528,301.506 275.241 L 302.186 274.719 302.484 212.453 C 302.648 178.207,302.913 135.806,303.074 118.230 C 303.568 64.097,303.483 24.371,302.872 23.760 C 302.137 23.024,298.858 23.056,298.028 23.807 C 297.636 24.162,296.618 24.458,295.176 24.637 C 293.942 24.790,291.884 25.184,290.604 25.511 C 289.324 25.839,287.589 26.105,286.749 26.104 C 284.680 26.100,279.748 26.644,276.819 27.199 C 275.444 27.460,271.086 27.774,266.617 27.934 C 259.245 28.199,256.099 28.448,251.913 29.097 C 246.462 29.942,227.059 29.719,225.325 28.790 C 224.947 28.588,222.106 28.318,218.636 28.154 C 214.482 27.958,211.996 27.699,210.653 27.324 C 208.596 26.749,204.298 26.107,202.507 26.107 C 201.923 26.107,200.647 25.831,199.672 25.495 C 198.697 25.159,197.089 24.808,196.099 24.715 C 195.000 24.612,193.959 24.307,193.428 23.933 C 192.814 23.501,191.761 23.241,189.862 23.050 C 188.379 22.901,186.776 22.578,186.298 22.331 C 185.821 22.084,183.712 21.676,181.612 21.425 C 179.513 21.174,176.917 20.713,175.844 20.402 C 174.771 20.091,172.625 19.746,171.075 19.635 C 169.055 19.491,167.964 19.261,167.221 18.823 C 165.812 17.992,143.649 17.181,136.384 17.695 M155.289 18.324 C 162.543 18.591,164.298 18.743,165.838 19.239 C 166.853 19.567,169.092 19.947,170.811 20.085 C 172.724 20.238,174.323 20.534,174.928 20.847 C 175.486 21.136,177.189 21.478,178.839 21.633 C 180.446 21.785,182.826 22.183,184.129 22.520 C 185.431 22.856,187.541 23.264,188.818 23.427 C 190.095 23.590,191.715 23.968,192.419 24.268 C 193.123 24.567,194.407 24.894,195.274 24.995 C 196.140 25.096,197.464 25.450,198.216 25.783 C 199.003 26.131,200.858 26.519,202.585 26.696 C 204.236 26.865,206.895 27.280,208.495 27.618 C 210.094 27.956,213.563 28.355,216.204 28.504 C 218.845 28.653,222.018 29.016,223.256 29.311 C 226.508 30.085,252.167 30.072,256.564 29.294 C 258.240 28.998,262.506 28.675,266.917 28.512 C 271.739 28.332,276.348 27.969,279.820 27.495 C 282.791 27.089,286.479 26.672,288.017 26.569 C 289.564 26.466,291.441 26.138,292.218 25.835 C 292.991 25.534,294.497 25.192,295.564 25.075 C 296.632 24.958,298.076 24.602,298.774 24.284 C 300.340 23.570,301.376 23.549,302.045 24.218 C 302.526 24.699,302.543 28.108,302.323 80.107 C 302.194 110.564,302.007 166.808,301.907 205.092 L 301.725 274.701 301.039 275.043 C 300.661 275.231,300.054 275.657,299.689 275.988 C 299.324 276.320,298.434 276.681,297.711 276.790 C 296.989 276.899,295.610 277.254,294.646 277.579 C 293.683 277.903,291.573 278.358,289.958 278.590 C 288.343 278.822,286.549 279.215,285.971 279.464 C 285.393 279.712,283.773 280.009,282.370 280.122 C 280.968 280.236,278.746 280.596,277.433 280.922 C 271.588 282.373,227.831 282.437,222.506 281.001 C 221.515 280.734,219.287 280.330,217.554 280.102 C 215.821 279.873,213.458 279.421,212.303 279.096 C 211.148 278.770,209.621 278.496,208.911 278.487 C 208.201 278.477,206.059 278.065,204.153 277.569 C 202.246 277.074,200.247 276.669,199.712 276.669 C 199.177 276.669,198.104 276.332,197.328 275.919 C 196.552 275.506,195.515 275.169,195.023 275.169 C 194.531 275.169,193.492 274.847,192.713 274.455 C 191.935 274.062,190.555 273.642,189.647 273.523 C 188.740 273.403,187.092 272.992,185.986 272.610 C 184.880 272.228,183.192 271.821,182.235 271.705 C 181.278 271.590,179.807 271.174,178.966 270.782 C 178.125 270.389,177.024 270.068,176.520 270.068 C 176.016 270.068,174.881 269.731,173.998 269.320 C 173.046 268.877,171.844 268.571,171.043 268.569 C 170.300 268.566,167.802 268.221,165.491 267.802 C 154.883 265.876,127.545 265.879,117.358 267.806 C 115.146 268.225,112.918 268.571,112.407 268.577 C 111.896 268.582,110.803 268.918,109.977 269.324 C 109.152 269.730,108.219 270.063,107.903 270.065 C 107.588 270.066,106.778 270.389,106.103 270.781 C 105.428 271.174,104.404 271.592,103.826 271.711 C 103.248 271.829,101.965 272.329,100.975 272.822 C 99.454 273.580,99.047 273.670,98.350 273.401 L 97.524 273.083 97.524 151.189 L 97.524 29.294 98.200 28.305 C 98.577 27.751,99.404 27.104,100.075 26.836 C 100.735 26.572,101.485 26.169,101.740 25.939 C 101.996 25.710,102.781 25.319,103.485 25.071 C 104.189 24.822,105.112 24.346,105.536 24.012 C 105.960 23.679,106.579 23.406,106.911 23.406 C 107.243 23.406,108.779 23.001,110.325 22.506 C 111.871 22.011,113.611 21.605,114.191 21.605 C 114.772 21.605,116.049 21.268,117.029 20.855 C 118.010 20.443,119.322 20.105,119.945 20.105 C 120.568 20.105,122.091 19.771,123.330 19.364 C 126.946 18.173,139.811 17.755,155.289 18.324 M170.638 35.249 C 170.287 36.165,170.034 253.023,170.383 253.897 C 170.622 254.495,171.039 254.767,172.145 255.045 C 172.942 255.245,173.998 255.655,174.494 255.955 C 174.989 256.256,176.126 256.599,177.020 256.718 C 177.914 256.837,179.561 257.246,180.679 257.626 C 181.797 258.006,183.454 258.410,184.362 258.523 C 185.271 258.637,186.652 259.053,187.431 259.447 C 188.211 259.842,189.267 260.165,189.778 260.165 C 190.289 260.165,191.214 260.437,191.834 260.769 C 192.453 261.101,194.004 261.517,195.280 261.692 C 196.556 261.868,198.545 262.273,199.700 262.592 C 200.855 262.912,202.998 263.310,204.462 263.477 C 205.925 263.643,207.748 264.037,208.513 264.352 C 209.277 264.667,210.816 265.012,211.933 265.120 C 213.049 265.227,214.673 265.565,215.541 265.870 C 216.409 266.175,218.331 266.512,219.812 266.619 C 221.294 266.725,225.341 267.170,228.807 267.606 C 239.403 268.940,269.817 268.670,272.162 267.220 C 272.281 267.147,273.870 266.946,275.692 266.774 C 277.702 266.584,279.524 266.232,280.325 265.877 C 281.052 265.556,282.244 265.198,282.974 265.081 C 283.705 264.964,284.714 264.626,285.216 264.329 C 285.719 264.033,286.839 263.638,287.705 263.452 C 288.678 263.244,289.392 262.903,289.575 262.560 C 290.068 261.639,289.977 40.370,289.484 39.961 C 289.216 39.739,288.490 39.726,287.158 39.918 C 286.093 40.072,284.511 40.201,283.643 40.204 C 282.775 40.207,280.858 40.479,279.383 40.807 C 277.524 41.221,274.641 41.495,269.982 41.701 C 266.287 41.864,261.317 42.157,258.938 42.351 C 253.239 42.818,228.268 42.824,224.456 42.360 C 222.888 42.169,218.413 41.873,214.511 41.703 C 210.177 41.514,206.792 41.223,205.809 40.954 C 204.925 40.713,202.716 40.377,200.900 40.208 C 199.085 40.039,196.789 39.642,195.799 39.326 C 194.809 39.009,192.446 38.606,190.548 38.429 C 188.650 38.252,185.973 37.837,184.600 37.507 C 183.226 37.178,181.063 36.792,179.792 36.650 C 178.502 36.505,176.929 36.109,176.232 35.754 C 174.477 34.858,170.911 34.537,170.638 35.249 M175.528 36.124 C 176.341 36.670,177.294 36.916,179.545 37.159 C 181.168 37.335,182.679 37.629,182.901 37.814 C 183.350 38.186,185.607 38.563,190.029 39.004 C 191.642 39.165,193.667 39.502,194.530 39.752 C 195.393 40.003,197.595 40.328,199.423 40.475 C 201.536 40.644,203.116 40.932,203.759 41.265 C 204.573 41.685,206.039 41.839,211.238 42.047 C 214.794 42.190,219.325 42.544,221.305 42.834 C 226.665 43.618,257.059 43.617,262.416 42.831 C 264.396 42.541,269.125 42.189,272.925 42.050 C 278.642 41.840,280.014 41.703,280.876 41.258 C 281.877 40.740,288.762 40.045,289.341 40.403 C 289.901 40.748,289.608 261.555,289.047 262.248 C 288.673 262.709,288.008 262.967,286.749 263.138 C 285.660 263.285,284.836 263.572,284.610 263.881 C 284.392 264.178,283.462 264.518,282.331 264.714 C 281.280 264.895,280.044 265.235,279.583 265.469 C 279.123 265.703,277.435 266.019,275.833 266.171 C 269.508 266.774,267.104 267.059,264.398 267.526 C 260.855 268.139,234.980 268.038,233.158 267.405 C 232.166 267.060,230.781 266.912,221.753 266.191 C 219.689 266.026,217.417 265.686,216.704 265.434 C 215.991 265.182,214.304 264.887,212.955 264.778 C 211.339 264.647,210.042 264.349,209.152 263.904 C 208.205 263.430,207.011 263.173,205.155 263.044 C 203.699 262.942,202.144 262.671,201.700 262.441 C 201.255 262.211,199.408 261.793,197.595 261.510 C 195.782 261.228,193.826 260.796,193.248 260.549 C 192.671 260.302,191.432 259.992,190.496 259.859 C 189.549 259.724,188.403 259.328,187.915 258.967 C 187.322 258.529,186.278 258.223,184.712 258.029 C 183.434 257.870,182.087 257.543,181.719 257.302 C 181.352 257.062,179.846 256.645,178.372 256.376 C 176.899 256.107,175.521 255.749,175.309 255.580 C 175.097 255.412,174.087 255.055,173.064 254.788 C 171.676 254.425,171.103 254.113,170.805 253.557 C 170.121 252.282,170.789 36.848,171.480 35.729 C 171.860 35.115,174.393 35.363,175.528 36.124 M135.484 40.513 C 134.824 40.639,133.541 40.888,132.633 41.067 C 131.725 41.246,129.631 41.527,127.980 41.691 C 126.328 41.855,124.100 42.270,123.028 42.614 C 121.957 42.957,120.473 43.315,119.730 43.409 C 118.987 43.502,117.902 43.884,117.318 44.257 C 116.734 44.630,115.808 45.034,115.260 45.154 C 114.712 45.275,113.787 45.697,113.204 46.092 C 112.621 46.488,111.918 46.812,111.641 46.812 C 109.093 46.812,107.052 51.281,108.020 54.739 C 108.985 58.187,114.452 59.794,118.030 57.683 C 118.603 57.345,119.840 56.909,120.780 56.714 C 121.720 56.519,122.915 56.117,123.435 55.820 C 123.955 55.523,124.882 55.193,125.494 55.086 C 126.105 54.979,127.223 54.618,127.977 54.285 C 129.473 53.623,131.864 53.417,145.182 52.802 C 154.019 52.394,156.185 51.661,156.798 48.870 C 156.901 48.402,157.110 47.942,157.262 47.848 C 158.125 47.314,156.823 42.586,155.642 41.965 C 155.283 41.776,154.607 41.304,154.141 40.916 C 153.256 40.180,138.874 39.869,135.484 40.513 M153.406 41.084 C 153.627 41.400,154.302 41.893,154.905 42.181 C 157.010 43.185,157.314 48.361,155.374 50.173 C 153.896 51.554,153.375 51.655,146.369 51.921 C 142.784 52.057,139.718 52.250,139.557 52.349 C 139.396 52.449,136.692 52.708,133.550 52.924 C 128.858 53.247,127.730 53.413,127.244 53.852 C 126.919 54.146,126.007 54.503,125.217 54.646 C 124.427 54.788,123.173 55.160,122.431 55.473 C 121.688 55.786,120.407 56.201,119.584 56.396 C 118.761 56.591,117.866 56.950,117.596 57.194 C 116.291 58.376,111.667 58.209,110.309 56.931 C 109.831 56.482,109.342 56.114,109.222 56.114 C 109.103 56.114,108.834 55.501,108.624 54.752 C 107.674 51.360,109.381 47.785,112.258 47.138 C 112.882 46.998,113.744 46.607,114.175 46.268 C 114.605 45.930,115.387 45.558,115.914 45.443 C 116.440 45.327,117.167 45.038,117.529 44.801 C 117.892 44.563,119.447 44.108,120.985 43.788 C 122.523 43.468,124.313 42.996,124.964 42.738 C 125.672 42.457,127.876 42.159,130.448 41.996 C 132.813 41.846,135.021 41.578,135.355 41.399 C 137.328 40.343,152.699 40.075,153.406 41.084 M186.947 50.882 C 186.699 50.932,185.983 51.057,185.354 51.160 C 179.311 52.148,179.856 62.538,186.024 63.918 C 186.934 64.122,187.976 64.484,188.340 64.722 C 188.703 64.960,189.788 65.229,190.749 65.320 C 191.868 65.425,192.877 65.738,193.548 66.188 C 194.351 66.726,195.201 66.939,197.149 67.094 C 198.552 67.204,200.173 67.493,200.750 67.734 C 201.957 68.239,204.272 68.594,209.106 69.017 C 210.978 69.181,213.320 69.525,214.310 69.782 C 215.299 70.038,217.953 70.359,220.208 70.494 C 223.081 70.666,224.710 70.908,225.656 71.304 C 227.723 72.167,257.554 72.174,259.415 71.312 C 260.344 70.881,261.799 70.696,265.859 70.491 C 272.371 70.162,276.705 69.121,277.130 67.784 C 277.223 67.489,277.559 67.165,277.875 67.065 C 279.019 66.702,279.517 61.966,278.634 59.853 C 277.737 57.706,275.142 56.134,272.468 56.117 C 269.981 56.101,262.645 56.672,257.914 57.251 C 252.395 57.926,229.915 58.008,227.771 57.361 C 226.510 56.981,224.661 56.796,215.304 56.114 C 213.158 55.958,210.811 55.618,210.087 55.359 C 209.363 55.100,207.675 54.813,206.336 54.721 C 204.563 54.599,203.663 54.386,203.026 53.937 C 202.386 53.487,201.380 53.251,199.283 53.058 C 197.705 52.913,196.128 52.607,195.778 52.377 C 194.897 51.800,188.103 50.650,186.947 50.882 M193.848 52.471 C 194.921 52.819,196.947 53.256,198.350 53.440 C 199.752 53.625,201.508 54.021,202.251 54.320 C 202.993 54.619,204.411 54.937,205.401 55.027 C 206.392 55.116,208.052 55.462,209.092 55.794 C 210.310 56.184,212.593 56.512,215.517 56.719 C 218.011 56.895,220.132 57.086,220.229 57.144 C 220.326 57.202,222.566 57.499,225.206 57.803 C 234.535 58.880,254.493 58.506,267.667 57.009 C 274.493 56.233,278.380 57.822,278.510 61.441 C 278.631 64.824,278.464 65.427,276.879 67.309 C 275.829 68.555,270.360 69.840,265.116 70.072 C 262.971 70.168,259.932 70.476,258.365 70.757 C 254.628 71.427,228.908 71.527,227.157 70.879 C 226.579 70.665,224.149 70.353,221.755 70.187 C 219.249 70.012,216.578 69.641,215.454 69.312 C 214.381 68.997,212.153 68.654,210.503 68.550 C 208.852 68.445,205.498 67.967,203.048 67.488 C 200.598 67.009,198.033 66.615,197.347 66.614 C 196.653 66.612,195.387 66.279,194.494 65.864 C 193.611 65.453,192.463 65.115,191.943 65.113 C 191.423 65.112,190.318 64.794,189.487 64.407 C 188.656 64.020,187.325 63.606,186.529 63.486 C 181.064 62.667,179.711 54.100,184.696 51.881 C 185.783 51.397,191.720 51.780,193.848 52.471 M134.734 71.911 C 133.247 72.049,129.856 72.588,127.319 73.090 C 126.130 73.326,124.577 73.519,123.869 73.520 C 123.124 73.520,122.178 73.766,121.627 74.102 C 121.102 74.422,120.089 74.838,119.376 75.026 C 118.663 75.213,117.645 75.620,117.113 75.928 C 116.581 76.236,115.636 76.584,115.012 76.701 C 110.644 77.518,107.727 80.521,107.727 84.203 C 107.727 86.790,108.446 87.837,111.459 89.643 C 112.526 90.282,116.044 90.124,117.073 89.391 C 117.561 89.044,118.594 88.578,119.370 88.355 C 120.146 88.132,121.523 87.678,122.431 87.345 C 123.338 87.013,124.463 86.737,124.931 86.731 C 125.398 86.726,126.749 86.396,127.932 85.998 C 129.167 85.583,131.551 85.129,133.533 84.932 C 135.431 84.743,137.592 84.449,138.335 84.279 C 139.077 84.109,142.588 83.871,146.137 83.749 C 151.127 83.578,152.792 83.420,153.488 83.051 C 157.517 80.918,157.877 75.823,154.205 72.920 L 152.684 71.718 144.234 71.766 C 139.587 71.792,135.311 71.858,134.734 71.911 M154.288 73.849 C 156.877 76.409,156.935 78.914,154.464 81.448 L 152.888 83.063 145.236 83.197 C 138.989 83.305,137.336 83.424,136.234 83.841 C 135.491 84.123,133.523 84.473,131.860 84.621 C 130.120 84.775,128.173 85.150,127.273 85.505 C 126.413 85.844,125.343 86.123,124.895 86.125 C 123.881 86.129,121.326 86.890,120.492 87.437 C 120.148 87.662,119.283 87.945,118.569 88.065 C 117.772 88.200,117.030 88.562,116.646 89.004 C 115.777 90.003,112.567 90.062,111.602 89.096 C 111.257 88.751,110.524 88.281,109.974 88.051 C 106.807 86.728,108.378 79.506,112.047 78.519 C 112.559 78.381,113.190 78.079,113.449 77.846 C 113.804 77.528,116.399 76.819,117.209 76.819 C 117.262 76.819,117.556 76.550,117.863 76.222 C 118.173 75.888,119.131 75.489,120.032 75.318 C 120.919 75.150,121.923 74.833,122.263 74.613 C 122.603 74.393,123.691 74.124,124.681 74.016 C 128.574 73.590,132.962 72.936,133.293 72.731 C 133.874 72.372,140.228 72.084,146.587 72.127 L 152.588 72.168 154.288 73.849 M186.647 81.832 C 186.234 81.911,185.694 82.155,185.446 82.375 C 185.199 82.594,184.621 82.868,184.163 82.982 C 183.705 83.096,183.179 83.473,182.994 83.818 C 182.809 84.164,182.374 84.676,182.026 84.957 C 181.476 85.402,181.382 85.851,181.293 88.464 L 181.191 91.461 182.263 92.648 C 183.687 94.224,185.351 95.316,186.680 95.547 C 187.277 95.651,187.997 95.993,188.281 96.307 C 188.662 96.727,189.404 96.933,191.098 97.086 C 192.363 97.201,193.938 97.529,194.599 97.815 C 195.259 98.101,197.014 98.497,198.500 98.695 C 202.321 99.205,204.215 99.529,206.452 100.054 C 207.524 100.306,209.150 100.515,210.064 100.519 C 211.162 100.523,212.129 100.738,212.915 101.153 C 213.922 101.686,214.929 101.822,219.504 102.047 C 222.474 102.192,226.322 102.551,228.056 102.844 C 232.591 103.609,251.098 103.599,256.463 102.828 C 258.470 102.539,262.937 102.201,266.389 102.077 C 272.223 101.866,272.725 101.803,273.507 101.188 C 273.971 100.823,274.668 100.525,275.057 100.525 C 276.953 100.525,279.070 97.309,279.070 94.427 C 279.070 89.240,276.517 87.382,269.917 87.766 C 268.267 87.863,263.811 88.070,260.015 88.228 C 255.707 88.407,252.267 88.702,250.863 89.014 C 247.424 89.778,234.030 89.774,231.509 89.009 C 230.238 88.623,227.684 88.349,222.807 88.076 C 219.010 87.864,215.547 87.548,215.110 87.375 C 214.181 87.007,207.690 86.126,205.800 86.112 C 205.086 86.106,203.758 85.838,202.851 85.515 C 201.943 85.192,200.390 84.843,199.400 84.740 C 198.301 84.625,197.190 84.286,196.549 83.871 C 195.806 83.388,194.868 83.141,193.342 83.024 C 192.155 82.933,190.873 82.661,190.491 82.418 C 189.701 81.917,187.758 81.621,186.647 81.832 M190.548 82.954 C 191.620 83.195,193.241 83.554,194.149 83.751 C 195.056 83.949,196.069 84.280,196.399 84.488 C 196.729 84.695,197.725 84.959,198.612 85.076 C 199.498 85.192,200.802 85.544,201.509 85.856 C 202.215 86.169,203.853 86.504,205.148 86.601 C 206.443 86.698,209.416 87.107,211.755 87.509 C 214.094 87.912,218.280 88.365,221.057 88.516 C 223.834 88.667,227.187 89.027,228.507 89.317 C 231.953 90.073,249.488 90.067,255.214 89.308 C 259.671 88.718,272.290 88.094,274.183 88.371 C 276.096 88.651,278.128 90.729,278.444 92.731 C 279.454 99.122,276.062 101.160,263.466 101.728 C 259.587 101.903,254.929 102.176,253.113 102.334 C 248.828 102.706,235.440 102.703,231.208 102.328 C 229.392 102.168,225.341 101.896,222.206 101.725 C 218.448 101.521,215.788 101.222,214.404 100.848 C 213.248 100.537,211.290 100.205,210.053 100.111 C 208.815 100.016,207.052 99.674,206.135 99.350 C 205.218 99.025,203.395 98.672,202.084 98.564 C 200.773 98.456,198.350 98.036,196.699 97.630 C 195.049 97.224,192.710 96.766,191.501 96.612 C 190.090 96.433,189.029 96.117,188.535 95.729 C 188.112 95.396,187.411 95.124,186.977 95.124 C 185.058 95.124,181.818 91.855,181.612 89.710 C 181.113 84.512,184.863 81.677,190.548 82.954 M134.434 103.378 C 129.546 103.663,127.974 103.862,126.782 104.345 C 125.956 104.680,124.575 105.050,123.712 105.167 C 122.848 105.285,121.835 105.620,121.461 105.913 C 121.087 106.205,120.016 106.538,119.083 106.653 C 118.149 106.769,116.866 107.130,116.232 107.456 C 115.598 107.782,114.485 108.184,113.758 108.350 C 113.032 108.515,112.055 108.949,111.588 109.314 C 111.120 109.679,110.312 110.306,109.793 110.708 C 103.741 115.389,110.755 124.569,117.456 120.737 C 118.129 120.352,118.851 120.036,119.061 120.034 C 119.271 120.032,119.946 119.707,120.562 119.313 C 121.177 118.919,122.262 118.511,122.973 118.407 C 123.684 118.302,125.372 117.897,126.724 117.506 C 128.427 117.014,130.381 116.733,133.083 116.592 C 135.229 116.479,137.794 116.249,138.785 116.079 C 139.775 115.909,143.286 115.667,146.587 115.541 C 154.172 115.250,155.556 114.705,156.946 111.461 C 158.280 108.349,156.462 104.197,153.358 103.267 C 151.922 102.837,142.759 102.890,134.434 103.378 M153.284 103.852 C 155.284 104.549,156.333 105.925,156.538 108.118 C 156.744 110.319,156.223 112.828,155.560 112.828 C 155.340 112.828,154.745 113.233,154.239 113.728 C 153.732 114.224,153.289 114.645,153.253 114.666 C 153.217 114.686,150.150 114.799,146.437 114.917 C 136.568 115.232,126.816 116.344,124.836 117.382 C 124.260 117.683,123.449 117.929,123.033 117.929 C 121.859 117.929,120.299 118.457,119.913 118.985 C 119.721 119.248,118.961 119.599,118.226 119.764 C 117.490 119.930,116.638 120.291,116.333 120.567 C 115.299 121.503,112.359 121.254,110.537 120.078 C 108.196 118.566,107.458 113.308,109.407 112.031 C 109.803 111.771,110.128 111.372,110.128 111.143 C 110.128 110.915,110.244 110.728,110.386 110.728 C 110.528 110.728,111.121 110.404,111.704 110.008 C 112.288 109.612,113.556 109.061,114.522 108.784 C 115.488 108.507,116.602 108.073,116.996 107.819 C 117.390 107.566,118.585 107.250,119.650 107.118 C 120.928 106.960,121.807 106.672,122.234 106.272 C 122.637 105.894,123.502 105.592,124.531 105.469 C 125.439 105.362,127.059 105.017,128.132 104.705 C 131.327 103.774,151.133 103.102,153.284 103.852 M184.546 114.049 C 183.138 115.260,183.162 115.237,182.111 116.380 C 181.195 117.377,181.191 117.394,181.293 120.351 C 181.406 123.627,181.213 123.247,184.185 126.066 C 185.011 126.849,185.939 127.232,187.010 127.232 C 187.562 127.232,188.280 127.418,188.605 127.645 C 189.254 128.098,193.405 129.032,194.770 129.032 C 195.241 129.032,196.340 129.299,197.213 129.624 C 198.086 129.949,199.921 130.340,201.292 130.493 C 202.918 130.674,203.984 130.950,204.358 131.289 C 204.805 131.694,205.840 131.868,209.067 132.081 C 211.342 132.232,213.910 132.556,214.774 132.801 C 221.312 134.659,265.246 134.663,272.018 132.806 C 272.843 132.580,274.059 132.301,274.719 132.187 C 280.263 131.229,280.551 120.638,275.062 119.608 C 274.494 119.501,273.864 119.215,273.662 118.972 C 273.168 118.377,271.171 118.408,269.978 119.029 C 269.242 119.412,267.720 119.582,263.466 119.758 C 260.413 119.883,256.902 120.158,255.664 120.369 C 252.410 120.921,230.215 120.931,228.387 120.380 C 227.661 120.162,224.923 119.876,222.303 119.745 C 218.443 119.553,217.429 119.410,216.966 118.991 C 216.521 118.588,215.341 118.390,211.635 118.095 C 209.017 117.887,206.588 117.563,206.237 117.375 C 205.573 117.020,202.999 116.562,199.400 116.158 C 198.245 116.029,196.872 115.702,196.350 115.431 C 195.828 115.161,194.647 114.852,193.727 114.743 C 192.684 114.621,191.692 114.280,191.092 113.837 C 189.545 112.696,185.986 112.811,184.546 114.049 M190.741 114.419 C 191.260 114.690,192.273 115.001,192.992 115.110 C 193.711 115.219,194.880 115.567,195.590 115.883 C 196.301 116.200,197.938 116.580,199.228 116.727 C 200.518 116.874,202.705 117.267,204.088 117.600 C 205.470 117.933,208.295 118.342,210.366 118.509 C 212.436 118.676,214.731 119.030,215.467 119.295 C 216.223 119.568,218.564 119.893,220.855 120.044 C 223.083 120.190,225.974 120.585,227.280 120.920 C 230.880 121.846,252.011 121.841,257.360 120.914 C 259.315 120.575,262.401 120.233,264.216 120.155 C 266.032 120.077,268.666 119.867,270.070 119.688 C 275.506 118.997,278.507 121.191,278.507 125.855 C 278.507 128.409,276.421 131.713,274.793 131.739 C 274.587 131.742,273.473 131.886,272.318 132.058 C 264.734 133.190,262.586 133.300,245.311 133.442 C 227.739 133.587,223.879 133.453,217.389 132.469 C 215.747 132.220,212.762 131.889,210.755 131.734 C 208.644 131.570,206.367 131.201,205.353 130.859 C 204.390 130.534,202.791 130.174,201.800 130.061 C 200.810 129.947,199.367 129.607,198.593 129.305 C 197.819 129.003,196.124 128.622,194.826 128.460 C 193.528 128.297,191.277 127.819,189.823 127.398 C 188.369 126.976,186.924 126.632,186.610 126.632 C 185.849 126.632,183.592 124.973,183.111 124.061 C 182.900 123.659,182.606 123.331,182.459 123.331 C 181.936 123.331,181.471 121.136,181.627 119.406 C 182.026 115.012,186.833 112.381,190.741 114.419 M186.198 144.841 C 185.403 145.064,183.067 146.683,182.213 147.604 C 181.299 148.590,181.164 149.272,181.289 152.276 C 181.400 154.936,181.328 154.772,183.196 156.647 C 184.467 157.922,187.115 159.033,188.897 159.039 C 189.392 159.041,190.743 159.377,191.898 159.785 C 193.053 160.193,194.530 160.530,195.179 160.534 C 195.969 160.538,196.588 160.754,197.049 161.187 C 197.621 161.724,198.286 161.877,200.962 162.086 C 202.736 162.224,204.823 162.549,205.601 162.807 C 207.042 163.286,213.866 164.124,216.407 164.135 C 217.179 164.138,219.177 164.410,220.848 164.740 C 227.597 166.070,257.238 166.065,264.930 164.733 C 266.808 164.407,269.311 164.141,270.491 164.141 C 276.518 164.141,279.312 161.589,279.009 156.359 C 278.770 152.230,275.307 149.865,270.565 150.594 C 260.606 152.125,221.658 152.017,216.057 150.442 C 215.151 150.187,213.046 149.881,211.379 149.763 C 209.118 149.601,208.089 149.388,207.325 148.923 C 206.579 148.468,205.530 148.242,203.451 148.087 C 201.883 147.970,199.884 147.626,199.008 147.322 C 198.132 147.019,196.376 146.616,195.107 146.427 C 193.837 146.238,192.111 145.821,191.272 145.501 C 189.650 144.883,187.190 144.563,186.198 144.841 M190.246 145.836 C 190.893 146.166,192.271 146.559,193.310 146.710 C 194.349 146.861,196.530 147.334,198.157 147.761 C 199.785 148.188,201.810 148.542,202.659 148.547 C 203.507 148.552,204.944 148.825,205.851 149.153 C 206.759 149.481,208.736 149.877,210.245 150.033 C 211.754 150.188,213.780 150.575,214.746 150.892 C 216.027 151.311,218.174 151.563,222.656 151.819 C 226.039 152.013,231.103 152.306,233.908 152.472 C 240.042 152.834,250.741 152.521,270.309 151.407 C 274.091 151.191,275.810 151.640,277.269 153.223 L 278.470 154.525 278.470 157.089 L 278.470 159.653 277.210 161.020 C 275.262 163.133,274.730 163.308,269.426 163.586 C 266.845 163.721,263.942 164.047,262.974 164.311 C 258.529 165.524,226.904 165.528,222.656 164.316 C 221.748 164.057,218.795 163.703,216.095 163.530 C 213.394 163.357,209.883 162.949,208.293 162.624 C 206.702 162.298,204.065 161.900,202.431 161.739 C 200.551 161.553,198.771 161.170,197.579 160.693 C 196.544 160.279,195.298 159.940,194.811 159.940 C 194.323 159.940,193.319 159.672,192.579 159.345 C 191.839 159.017,190.302 158.618,189.165 158.458 C 183.811 157.704,181.014 154.630,181.674 150.228 C 182.198 146.733,187.091 144.226,190.246 145.836 " stroke="none" fill="#9c9c99" fill-rule="evenodd"></path><path id="path3" d="M132.933 18.359 C 126.704 18.590,125.608 18.707,123.537 19.363 C 122.248 19.771,120.678 20.105,120.049 20.105 C 119.419 20.105,118.179 20.423,117.292 20.811 C 116.405 21.199,114.829 21.603,113.790 21.708 C 112.751 21.813,111.657 22.029,111.360 22.188 C 111.062 22.348,109.685 22.769,108.298 23.125 C 106.911 23.480,105.565 23.958,105.307 24.185 C 105.049 24.413,104.373 24.754,103.806 24.944 C 103.240 25.134,102.371 25.589,101.875 25.955 C 101.380 26.321,100.638 26.723,100.225 26.849 C 99.265 27.142,98.474 27.841,97.944 28.867 C 97.353 30.010,97.309 272.528,97.899 272.985 C 98.750 273.643,99.363 273.603,100.886 272.792 C 101.760 272.327,102.948 271.855,103.526 271.745 C 104.104 271.635,105.251 271.226,106.077 270.836 C 109.066 269.424,110.914 268.790,112.763 268.541 C 113.800 268.402,116.095 268.009,117.864 267.668 C 127.101 265.887,155.916 265.885,165.041 267.663 C 166.774 268.001,169.205 268.365,170.443 268.472 C 171.808 268.590,173.283 268.941,174.194 269.364 C 175.019 269.748,176.137 270.063,176.679 270.065 C 177.221 270.066,178.301 270.386,179.080 270.775 C 179.858 271.164,181.250 271.568,182.173 271.673 C 183.096 271.777,184.852 272.186,186.074 272.582 C 187.297 272.978,188.991 273.395,189.838 273.509 C 190.686 273.622,192.025 274.042,192.815 274.442 C 193.604 274.842,194.628 275.169,195.090 275.169 C 195.552 275.169,196.466 275.448,197.120 275.789 C 197.774 276.130,199.230 276.536,200.355 276.691 C 201.480 276.846,203.344 277.256,204.496 277.601 C 205.649 277.947,207.742 278.338,209.147 278.471 C 210.553 278.605,212.513 278.986,213.503 279.318 C 214.494 279.651,216.384 280.012,217.704 280.121 C 219.025 280.230,221.107 280.577,222.332 280.893 C 228.179 282.401,273.484 282.369,277.460 280.854 C 277.933 280.674,279.960 280.344,281.965 280.122 C 283.970 279.899,286.012 279.509,286.502 279.256 C 286.993 279.002,288.323 278.710,289.459 278.608 C 290.594 278.505,292.890 278.027,294.561 277.545 C 296.232 277.063,297.867 276.669,298.195 276.669 C 298.699 276.669,299.870 275.924,301.478 274.581 C 301.746 274.358,301.836 262.583,301.854 225.890 C 301.866 199.273,302.023 143.242,302.202 101.378 C 302.440 45.483,302.438 25.096,302.192 24.637 C 301.692 23.702,300.616 23.571,299.066 24.257 C 298.317 24.588,296.921 24.948,295.964 25.057 C 295.007 25.166,293.435 25.518,292.471 25.840 C 291.473 26.173,289.147 26.546,287.070 26.706 C 285.063 26.860,281.598 27.261,279.370 27.595 C 276.946 27.959,272.185 28.329,267.517 28.517 C 263.170 28.691,258.386 29.053,256.714 29.334 C 252.152 30.101,226.600 30.098,223.106 29.330 C 221.785 29.040,218.545 28.677,215.904 28.523 C 213.263 28.369,209.752 27.961,208.102 27.616 C 206.452 27.270,203.878 26.861,202.382 26.705 C 200.886 26.550,199.063 26.158,198.331 25.834 C 197.599 25.511,196.257 25.159,195.349 25.052 C 194.441 24.945,193.091 24.611,192.348 24.310 C 191.605 24.008,190.188 23.666,189.197 23.550 C 188.207 23.434,186.047 23.017,184.396 22.623 C 182.746 22.229,180.315 21.821,178.995 21.716 C 177.674 21.611,175.919 21.264,175.094 20.945 C 174.269 20.626,172.290 20.254,170.698 20.119 C 169.105 19.984,166.945 19.597,165.897 19.259 C 164.233 18.721,162.696 18.603,153.788 18.324 C 142.745 17.977,143.264 17.977,132.933 18.359 M155.743 18.920 C 160.053 19.112,163.432 19.408,164.441 19.680 C 165.349 19.926,167.690 20.247,169.645 20.394 C 172.314 20.595,173.340 20.791,173.771 21.180 C 174.181 21.551,175.343 21.803,177.869 22.066 C 179.809 22.269,181.733 22.578,182.146 22.755 C 183.133 23.176,185.660 23.678,188.447 24.005 C 189.685 24.150,191.117 24.480,191.629 24.738 C 192.141 24.995,193.424 25.293,194.480 25.399 C 195.595 25.510,196.902 25.873,197.599 26.264 C 198.490 26.763,199.500 26.982,201.517 27.114 C 203.011 27.212,204.789 27.488,205.468 27.728 C 206.865 28.220,213.625 29.107,215.985 29.107 C 216.841 29.107,219.266 29.391,221.374 29.739 C 226.981 30.663,251.955 30.649,259.565 29.717 C 262.288 29.384,265.596 29.110,266.917 29.109 C 270.910 29.105,281.122 28.238,282.773 27.762 C 283.624 27.516,286.144 27.197,288.372 27.051 C 291.547 26.844,292.650 26.656,293.473 26.182 C 294.096 25.823,295.345 25.506,296.541 25.404 C 297.650 25.308,298.960 25.022,299.452 24.768 C 300.615 24.167,301.162 24.184,301.421 24.831 C 301.645 25.393,301.604 90.010,301.308 204.197 C 301.126 274.402,301.123 274.711,300.525 274.820 C 300.195 274.880,299.655 275.168,299.325 275.460 C 298.995 275.753,297.601 276.213,296.229 276.483 C 294.856 276.754,293.311 277.193,292.797 277.459 C 292.260 277.736,290.599 278.042,288.899 278.175 C 286.732 278.346,285.780 278.550,285.351 278.938 C 284.908 279.339,283.916 279.533,281.254 279.737 C 279.322 279.885,276.927 280.211,275.930 280.461 C 271.045 281.685,228.208 281.668,223.406 280.441 C 222.416 280.187,220.323 279.893,218.755 279.786 C 216.771 279.651,215.448 279.385,214.404 278.914 C 213.326 278.428,212.080 278.188,209.978 278.061 C 208.320 277.962,206.681 277.693,206.193 277.441 C 205.720 277.196,203.998 276.778,202.366 276.512 C 200.735 276.246,198.792 275.782,198.050 275.480 C 197.307 275.179,195.981 274.836,195.102 274.719 C 194.224 274.602,193.437 274.328,193.354 274.111 C 193.150 273.578,192.630 273.406,190.187 273.060 C 189.045 272.898,187.705 272.555,187.208 272.298 C 186.711 272.041,185.132 271.630,183.700 271.386 C 182.267 271.141,180.633 270.727,180.068 270.465 C 179.503 270.204,178.276 269.900,177.342 269.790 C 176.316 269.669,175.324 269.338,174.837 268.955 C 174.218 268.468,173.418 268.274,171.411 268.122 C 169.971 268.014,167.914 267.674,166.842 267.368 C 163.781 266.494,147.979 265.385,139.985 265.483 C 131.107 265.592,117.053 266.712,115.739 267.415 C 115.426 267.582,113.890 267.898,112.326 268.117 C 110.488 268.374,109.358 268.678,109.130 268.979 C 108.936 269.235,108.102 269.592,107.277 269.772 C 106.452 269.953,105.476 270.297,105.109 270.536 C 104.742 270.775,103.703 271.164,102.799 271.399 C 101.896 271.634,100.754 272.124,100.262 272.488 C 99.767 272.854,99.158 273.068,98.896 272.968 C 98.303 272.740,98.158 30.021,98.750 28.721 C 99.094 27.967,100.468 27.007,101.203 27.007 C 101.442 27.007,102.002 26.669,102.447 26.257 C 102.892 25.844,103.432 25.506,103.647 25.506 C 103.861 25.506,104.631 25.195,105.357 24.814 C 106.083 24.433,107.487 23.952,108.477 23.744 C 109.467 23.536,110.683 23.150,111.178 22.887 C 111.673 22.624,113.355 22.239,114.916 22.031 C 116.930 21.762,117.862 21.503,118.129 21.138 C 118.403 20.763,119.183 20.560,120.993 20.392 C 122.361 20.264,124.089 19.951,124.831 19.697 C 127.552 18.763,143.350 18.366,155.743 18.920 M170.165 34.574 C 169.784 35.665,169.282 251.349,169.656 253.329 C 169.919 254.726,170.541 255.364,171.641 255.364 C 172.118 255.364,172.895 255.699,173.395 256.119 C 174.046 256.667,174.854 256.948,176.343 257.142 C 177.472 257.289,178.823 257.630,179.347 257.898 C 179.870 258.166,181.558 258.605,183.098 258.873 C 184.637 259.142,186.099 259.532,186.347 259.741 C 186.594 259.951,187.725 260.283,188.860 260.481 C 190.006 260.680,191.155 261.073,191.446 261.364 C 191.807 261.724,192.708 261.956,194.335 262.105 C 195.635 262.225,197.307 262.563,198.050 262.856 C 199.673 263.498,202.584 264.066,204.247 264.066 C 204.913 264.066,206.255 264.344,207.230 264.683 C 208.205 265.023,209.947 265.376,211.103 265.468 C 212.398 265.572,213.606 265.868,214.254 266.241 C 215.075 266.715,216.182 266.905,219.338 267.114 C 221.556 267.260,224.122 267.569,225.039 267.799 C 231.735 269.479,267.580 269.494,272.768 267.820 C 273.511 267.580,275.555 267.266,277.311 267.123 C 279.872 266.914,280.667 266.734,281.328 266.214 C 281.781 265.858,282.572 265.565,283.086 265.563 C 283.600 265.562,284.743 265.224,285.626 264.813 C 286.509 264.402,287.495 264.066,287.817 264.066 C 288.955 264.066,290.085 263.230,290.282 262.241 C 290.806 259.624,290.483 40.470,289.954 39.575 C 289.609 38.991,289.283 38.761,288.979 38.886 C 287.814 39.367,286.463 39.565,283.214 39.731 C 281.285 39.830,278.719 40.123,277.513 40.382 C 268.815 42.252,214.958 42.246,206.912 40.375 C 205.762 40.107,203.352 39.804,201.556 39.702 C 199.185 39.566,197.990 39.356,197.194 38.935 C 196.386 38.507,195.077 38.284,192.198 38.084 C 190.053 37.935,187.824 37.626,187.247 37.397 C 186.669 37.169,184.509 36.748,182.446 36.463 C 180.383 36.178,178.087 35.705,177.344 35.412 C 176.602 35.119,175.319 34.786,174.494 34.671 C 173.668 34.556,172.694 34.270,172.329 34.035 C 171.231 33.330,170.538 33.503,170.165 34.574 M173.479 34.951 C 174.406 35.056,175.669 35.412,176.285 35.743 C 176.942 36.095,178.479 36.463,180.001 36.633 C 181.428 36.792,183.001 37.049,183.496 37.203 C 184.911 37.644,189.267 38.346,191.866 38.554 C 193.169 38.658,194.790 38.939,195.467 39.179 C 196.145 39.418,198.117 39.758,199.850 39.932 C 201.583 40.107,204.081 40.504,205.401 40.815 C 207.063 41.205,210.019 41.480,215.004 41.708 C 218.965 41.889,223.556 42.181,225.206 42.359 C 229.984 42.872,251.279 42.778,260.765 42.202 C 276.306 41.258,278.322 41.097,279.864 40.679 C 280.714 40.449,282.672 40.176,284.215 40.074 C 285.759 39.971,287.577 39.820,288.256 39.737 C 290.334 39.482,290.187 30.545,290.101 151.789 L 290.023 262.319 289.365 262.851 C 289.003 263.144,288.132 263.476,287.428 263.588 C 286.725 263.701,285.738 264.042,285.235 264.348 C 284.732 264.653,283.713 265.001,282.971 265.121 C 282.228 265.240,281.108 265.598,280.482 265.915 C 279.727 266.298,278.212 266.592,275.985 266.787 C 274.138 266.949,272.152 267.200,271.572 267.345 C 266.278 268.667,238.395 268.928,229.557 267.738 C 226.834 267.372,222.918 266.935,220.855 266.767 C 218.792 266.600,216.294 266.206,215.304 265.891 C 214.314 265.577,212.656 265.242,211.620 265.147 C 210.585 265.052,209.331 264.764,208.835 264.507 C 208.339 264.251,206.823 263.899,205.467 263.726 C 204.110 263.553,201.853 263.136,200.450 262.800 C 199.047 262.464,196.819 262.015,195.499 261.802 C 194.179 261.589,192.491 261.136,191.748 260.796 C 191.005 260.456,190.060 260.174,189.647 260.169 C 189.235 260.163,188.216 259.842,187.383 259.454 C 186.551 259.066,185.070 258.649,184.093 258.527 C 183.117 258.405,181.680 258.054,180.901 257.747 C 180.122 257.440,178.564 257.031,177.439 256.838 C 176.314 256.644,174.787 256.166,174.046 255.775 C 173.305 255.384,172.393 255.064,172.020 255.064 C 171.648 255.064,171.052 254.773,170.696 254.417 L 170.050 253.771 170.235 144.815 C 170.421 34.825,170.425 34.384,171.305 34.626 C 171.573 34.699,172.552 34.846,173.479 34.951 M135.484 39.907 C 134.164 40.031,132.543 40.277,131.883 40.455 C 131.223 40.632,129.805 40.859,128.732 40.958 C 125.546 41.253,122.958 41.752,121.680 42.320 C 121.020 42.613,119.716 42.947,118.782 43.063 C 117.531 43.218,116.918 43.463,116.458 43.992 C 116.114 44.388,115.501 44.711,115.095 44.711 C 114.273 44.711,112.828 45.291,112.828 45.621 C 112.828 45.738,112.247 45.996,111.537 46.195 C 109.964 46.635,108.148 48.280,107.878 49.508 C 107.769 50.005,107.566 50.413,107.427 50.413 C 106.518 50.413,106.625 53.602,107.595 55.426 C 109.669 59.327,114.080 60.329,118.853 57.984 C 119.939 57.451,121.297 57.014,121.871 57.014 C 122.498 57.014,123.300 56.730,123.880 56.302 C 124.433 55.894,125.504 55.502,126.386 55.385 C 127.233 55.273,128.335 54.969,128.836 54.710 C 129.864 54.178,141.084 53.438,148.340 53.422 C 152.031 53.414,152.578 53.347,153.256 52.813 C 153.676 52.483,154.278 52.213,154.593 52.213 C 155.348 52.213,156.580 50.872,157.252 49.320 C 157.548 48.637,157.936 47.988,158.115 47.877 C 159.445 47.055,157.456 42.442,155.068 40.810 L 153.530 39.760 145.707 39.721 C 141.405 39.700,136.804 39.784,135.484 39.907 M154.541 41.185 C 157.034 42.871,158.292 45.993,157.264 47.941 C 157.113 48.228,156.832 48.888,156.640 49.408 C 155.699 51.956,154.025 52.478,145.686 52.827 C 133.091 53.352,129.406 53.664,128.142 54.308 C 127.507 54.633,126.401 54.991,125.684 55.105 C 124.967 55.219,123.787 55.628,123.061 56.013 C 122.335 56.399,121.412 56.714,121.011 56.714 C 120.609 56.714,119.328 57.132,118.163 57.643 C 115.288 58.906,111.833 58.855,109.911 57.522 C 106.153 54.917,107.371 47.782,111.760 46.691 C 112.245 46.570,112.996 46.220,113.428 45.911 C 113.861 45.603,114.612 45.259,115.097 45.147 C 115.582 45.034,116.452 44.635,117.029 44.260 C 117.607 43.885,118.776 43.492,119.627 43.388 C 120.479 43.283,121.957 42.928,122.913 42.600 C 123.869 42.271,126.481 41.800,128.717 41.553 C 130.953 41.306,133.201 40.966,133.713 40.799 C 135.222 40.304,139.865 39.995,146.470 39.951 L 152.654 39.910 154.541 41.185 M184.696 52.043 C 179.822 54.246,180.964 62.246,186.308 63.333 C 187.237 63.521,188.489 63.933,189.091 64.248 C 189.692 64.562,190.840 64.904,191.641 65.008 C 192.443 65.111,193.706 65.468,194.449 65.800 C 195.191 66.132,196.879 66.515,198.200 66.652 C 199.520 66.789,201.815 67.175,203.301 67.509 C 204.786 67.844,207.757 68.254,209.902 68.421 C 212.048 68.589,214.681 68.982,215.754 69.296 C 216.916 69.636,219.113 69.933,221.188 70.029 C 223.103 70.118,225.669 70.433,226.889 70.729 C 230.129 71.516,254.202 71.528,257.980 70.745 C 259.336 70.464,262.307 70.149,264.582 70.045 C 267.297 69.922,269.799 69.606,271.868 69.127 C 273.601 68.725,275.289 68.336,275.619 68.260 C 277.187 67.904,278.312 65.763,278.425 62.922 L 278.531 60.264 277.020 58.807 C 274.499 56.377,274.717 56.395,262.116 57.633 C 251.183 58.707,232.333 58.699,223.556 57.617 C 220.833 57.281,216.849 56.880,214.704 56.726 C 212.426 56.562,210.054 56.205,209.002 55.867 C 208.012 55.549,206.324 55.188,205.251 55.065 C 204.179 54.942,202.693 54.604,201.950 54.314 C 201.208 54.024,199.509 53.642,198.174 53.463 C 196.840 53.285,194.563 52.796,193.115 52.376 C 190.121 51.509,186.220 51.355,184.696 52.043 M192.070 52.675 C 193.055 53.184,196.772 54.014,198.068 54.014 C 198.552 54.014,199.753 54.292,200.737 54.633 C 201.721 54.973,203.609 55.361,204.933 55.495 C 206.377 55.640,207.668 55.952,208.159 56.274 C 208.790 56.687,209.960 56.867,213.284 57.059 C 215.653 57.195,218.359 57.501,219.298 57.738 C 225.558 59.316,260.470 59.325,267.310 57.750 C 269.888 57.157,274.071 57.165,274.569 57.764 C 274.774 58.012,275.111 58.215,275.317 58.215 C 275.524 58.215,276.250 58.819,276.931 59.558 C 278.734 61.514,278.670 64.586,276.789 66.469 C 276.442 66.817,276.104 67.261,276.038 67.457 C 275.972 67.655,274.861 67.947,273.542 68.114 C 272.235 68.280,270.344 68.677,269.341 68.997 C 268.024 69.417,266.265 69.626,263.016 69.747 C 260.540 69.839,256.759 70.116,254.614 70.363 C 248.633 71.051,234.715 70.972,228.207 70.213 C 225.401 69.886,222.026 69.615,220.705 69.611 C 218.909 69.606,217.965 69.446,216.954 68.975 C 215.913 68.491,214.651 68.289,211.440 68.093 C 209.150 67.954,206.652 67.640,205.889 67.395 C 204.457 66.935,198.668 66.017,197.204 66.017 C 196.748 66.017,195.877 65.762,195.268 65.452 C 194.659 65.141,193.392 64.791,192.454 64.674 C 191.516 64.556,190.399 64.204,189.973 63.891 C 189.546 63.578,188.341 63.207,187.295 63.065 C 181.566 62.290,180.231 53.877,185.572 52.217 C 186.816 51.830,191.008 52.125,192.070 52.675 M131.883 71.546 C 130.068 71.735,127.974 72.113,127.232 72.387 C 126.489 72.661,124.843 72.970,123.574 73.075 C 121.757 73.226,121.110 73.411,120.529 73.950 C 120.069 74.375,119.226 74.708,118.292 74.832 C 117.467 74.942,116.639 75.216,116.452 75.442 C 116.264 75.668,115.474 76.007,114.695 76.195 C 112.841 76.644,111.628 77.133,111.628 77.432 C 111.628 77.564,111.201 77.766,110.679 77.880 C 109.681 78.099,108.027 79.656,108.027 80.377 C 108.027 80.609,107.749 81.250,107.408 81.801 C 106.016 84.053,107.149 87.516,109.897 89.411 C 111.808 90.728,115.999 90.969,117.528 89.849 C 117.996 89.506,119.303 88.996,120.431 88.714 C 121.559 88.433,122.774 88.012,123.131 87.779 C 123.489 87.546,124.895 87.217,126.257 87.047 C 127.803 86.854,129.044 86.520,129.558 86.158 C 130.206 85.702,131.120 85.537,133.833 85.388 C 135.731 85.283,138.432 85.067,139.835 84.909 C 141.238 84.750,144.765 84.498,147.673 84.348 C 156.190 83.911,158.630 81.299,156.745 74.636 C 156.662 74.342,155.787 73.431,154.800 72.610 L 153.007 71.118 144.095 71.161 C 139.194 71.184,133.698 71.358,131.883 71.546 M153.962 72.693 C 157.243 74.953,157.780 79.079,155.143 81.767 C 153.425 83.516,152.940 83.624,145.836 83.837 C 142.618 83.933,138.905 84.207,137.584 84.446 C 136.264 84.684,133.968 84.974,132.483 85.088 C 130.922 85.209,129.253 85.534,128.527 85.858 C 127.837 86.166,126.419 86.543,125.376 86.696 C 124.334 86.848,122.566 87.321,121.449 87.747 C 120.331 88.174,119.175 88.522,118.881 88.522 C 118.587 88.522,117.889 88.860,117.329 89.272 C 115.892 90.333,112.120 90.376,110.823 89.347 C 110.356 88.976,109.704 88.525,109.375 88.345 C 107.890 87.532,107.208 84.182,108.036 81.770 C 108.805 79.530,111.776 77.330,114.929 76.667 C 115.506 76.545,116.586 76.124,117.327 75.732 C 118.068 75.340,118.917 75.019,119.212 75.019 C 119.508 75.019,120.387 74.700,121.165 74.310 C 121.963 73.911,123.432 73.518,124.533 73.409 C 125.606 73.303,127.480 73.009,128.696 72.756 C 132.530 71.956,134.950 71.797,143.865 71.757 L 152.546 71.718 153.962 72.693 M185.746 83.005 C 182.827 83.991,181.244 86.737,181.696 90.030 C 181.946 91.843,184.758 94.672,186.647 95.009 C 187.224 95.112,188.120 95.452,188.637 95.763 C 189.155 96.075,190.631 96.463,191.917 96.627 C 193.204 96.790,195.214 97.192,196.383 97.520 C 197.553 97.848,199.912 98.261,201.625 98.436 C 203.338 98.612,205.496 99.006,206.421 99.313 C 207.345 99.619,209.139 99.947,210.407 100.042 C 211.675 100.136,213.295 100.423,214.008 100.679 C 218.106 102.151,241.003 102.990,254.914 102.179 C 270.051 101.295,271.333 101.180,273.136 100.537 C 274.081 100.201,275.026 99.923,275.236 99.920 C 275.447 99.917,276.227 99.286,276.969 98.517 L 278.320 97.119 278.320 94.383 L 278.320 91.647 277.119 90.239 C 276.309 89.289,275.541 88.725,274.757 88.505 C 273.226 88.076,260.760 88.611,255.814 89.319 C 250.397 90.094,231.630 90.103,228.207 89.332 C 226.887 89.034,223.511 88.667,220.705 88.516 C 217.899 88.364,214.119 87.964,212.303 87.626 C 210.488 87.289,207.541 86.878,205.755 86.714 C 203.970 86.550,202.110 86.209,201.622 85.957 C 201.134 85.705,199.962 85.362,199.017 85.196 C 198.072 85.030,196.692 84.644,195.949 84.337 C 195.206 84.031,193.653 83.634,192.498 83.455 C 191.343 83.277,189.926 82.993,189.349 82.826 C 187.976 82.426,187.372 82.456,185.746 83.005 M190.980 83.738 C 191.980 83.913,193.633 84.327,194.654 84.659 C 195.675 84.990,197.343 85.379,198.361 85.523 C 199.379 85.667,200.469 86.017,200.783 86.301 C 201.205 86.683,202.227 86.884,204.728 87.077 C 206.584 87.219,208.642 87.535,209.302 87.778 C 210.605 88.257,218.557 89.122,221.660 89.122 C 222.717 89.122,224.622 89.359,225.894 89.647 C 229.276 90.415,254.940 90.432,259.265 89.669 C 262.930 89.022,273.268 88.643,274.665 89.104 C 276.599 89.743,278.173 92.032,278.159 94.189 C 278.119 100.456,272.665 101.575,242.161 101.575 C 228.459 101.575,218.530 101.130,215.754 100.390 C 214.846 100.149,212.651 99.830,210.876 99.683 C 208.495 99.485,207.496 99.276,207.065 98.887 C 206.620 98.484,205.621 98.295,202.844 98.088 C 200.843 97.939,198.844 97.632,198.403 97.406 C 197.961 97.180,196.114 96.760,194.299 96.472 C 192.483 96.185,190.323 95.697,189.497 95.389 C 188.672 95.080,187.524 94.738,186.947 94.629 C 185.848 94.421,185.509 94.174,183.421 92.063 C 181.719 90.341,181.565 87.896,183.037 85.950 C 183.528 85.302,183.933 84.630,183.938 84.458 C 183.961 83.589,187.850 83.192,190.980 83.738 M140.735 102.331 C 139.662 102.456,136.152 102.716,132.933 102.909 C 127.849 103.213,126.969 103.340,126.224 103.876 C 125.723 104.236,124.586 104.589,123.490 104.725 C 122.458 104.853,121.291 105.158,120.897 105.403 C 120.503 105.648,119.302 106.022,118.230 106.234 C 117.157 106.445,115.672 106.936,114.931 107.323 C 114.190 107.710,113.272 108.027,112.891 108.027 C 112.511 108.027,111.887 108.365,111.504 108.777 C 111.122 109.190,110.674 109.527,110.509 109.527 C 109.258 109.527,106.827 113.479,106.827 115.512 C 106.827 116.684,108.445 120.330,108.965 120.330 C 109.125 120.330,109.598 120.699,110.016 121.151 C 111.252 122.483,116.639 122.545,117.856 121.241 C 118.144 120.932,118.785 120.583,119.280 120.466 C 119.775 120.349,120.585 120.019,121.080 119.733 C 121.575 119.447,123.195 118.978,124.679 118.691 C 126.163 118.405,127.770 117.967,128.250 117.718 C 128.884 117.391,130.783 117.197,135.155 117.012 C 143.524 116.660,150.591 116.160,151.838 115.832 C 152.416 115.680,153.255 115.481,153.704 115.389 C 156.474 114.822,159.271 109.634,157.998 107.427 C 157.760 107.014,157.416 106.342,157.233 105.933 C 155.752 102.609,149.696 101.287,140.735 102.331 M153.338 103.261 C 156.534 104.091,158.417 108.401,156.984 111.603 C 155.672 114.533,153.282 115.524,147.507 115.534 C 145.845 115.537,143.271 115.676,141.785 115.843 C 140.300 116.010,136.654 116.332,133.683 116.559 C 129.944 116.844,127.728 117.160,126.482 117.584 C 125.491 117.921,123.882 118.339,122.905 118.512 C 121.929 118.686,120.909 119.027,120.640 119.271 C 120.371 119.515,119.552 119.925,118.820 120.184 C 118.088 120.442,117.177 120.857,116.796 121.107 C 112.409 123.982,106.378 118.991,107.902 113.748 C 108.522 111.617,111.288 108.914,113.304 108.471 C 113.785 108.366,114.921 107.963,115.829 107.577 C 116.737 107.190,118.155 106.780,118.980 106.665 C 119.805 106.550,120.888 106.210,121.387 105.909 C 121.887 105.608,123.124 105.228,124.138 105.064 C 125.152 104.901,126.429 104.536,126.977 104.253 C 128.156 103.643,132.643 103.289,143.286 102.965 C 150.572 102.744,151.448 102.769,153.338 103.261 M184.996 114.480 C 184.501 114.883,183.893 115.422,183.646 115.678 C 183.398 115.934,182.896 116.456,182.529 116.838 C 181.399 118.015,181.333 123.331,182.448 123.331 C 182.601 123.331,182.900 123.659,183.111 124.061 C 183.634 125.052,185.876 126.632,186.761 126.632 C 187.156 126.632,188.669 126.976,190.123 127.398 C 191.577 127.819,193.840 128.298,195.152 128.463 C 196.463 128.627,197.946 128.974,198.448 129.233 C 198.949 129.492,200.366 129.829,201.597 129.982 C 202.828 130.135,204.314 130.460,204.899 130.704 C 205.483 130.948,207.186 131.278,208.682 131.437 C 214.694 132.076,216.960 132.349,220.405 132.849 C 223.512 133.299,226.518 133.372,242.311 133.377 C 260.747 133.383,262.632 133.304,271.081 132.165 C 275.624 131.553,275.583 131.569,277.134 129.685 L 278.524 127.997 278.408 125.439 C 278.213 121.141,275.181 118.964,270.402 119.691 C 269.310 119.858,266.729 120.067,264.666 120.158 C 262.603 120.248,259.526 120.594,257.829 120.926 C 253.164 121.840,230.286 121.831,226.857 120.915 C 225.619 120.584,223.121 120.237,221.305 120.143 C 219.490 120.049,217.059 119.718,215.904 119.407 C 214.749 119.096,212.129 118.697,210.083 118.520 C 208.037 118.342,205.228 117.928,203.841 117.598 C 202.454 117.269,200.254 116.878,198.952 116.729 C 197.650 116.581,196.042 116.183,195.379 115.844 C 194.715 115.506,193.825 115.229,193.401 115.229 C 192.977 115.229,191.828 114.891,190.848 114.479 C 188.449 113.469,186.238 113.469,184.996 114.480 M189.532 114.633 C 189.700 114.801,190.839 115.147,192.065 115.403 C 193.291 115.658,194.526 116.078,194.811 116.335 C 195.138 116.631,196.340 116.905,198.079 117.079 C 199.592 117.231,201.196 117.544,201.643 117.776 C 202.090 118.007,204.401 118.413,206.779 118.680 C 209.157 118.946,212.386 119.424,213.953 119.743 C 215.521 120.062,218.290 120.397,220.105 120.487 C 222.441 120.604,223.932 120.846,225.206 121.316 C 228.103 122.385,256.745 122.349,260.165 121.272 C 265.197 119.688,275.365 119.879,276.242 121.575 C 276.485 122.046,276.813 122.431,276.969 122.431 C 278.555 122.431,278.557 126.988,276.972 128.993 C 275.412 130.967,275.163 131.079,271.511 131.446 C 266.152 131.986,263.369 132.330,261.665 132.664 C 258.702 133.246,225.690 133.136,222.956 132.536 C 220.577 132.014,216.848 131.563,211.403 131.140 C 209.587 130.999,207.034 130.602,205.728 130.258 C 204.423 129.914,202.751 129.632,202.013 129.632 C 201.166 129.632,200.288 129.396,199.634 128.991 C 198.915 128.547,197.764 128.267,195.882 128.078 C 194.390 127.928,192.779 127.605,192.304 127.359 C 191.829 127.113,190.193 126.700,188.668 126.440 C 186.798 126.121,185.722 125.783,185.360 125.399 C 185.064 125.087,184.622 124.831,184.377 124.831 C 184.132 124.831,183.805 124.499,183.650 124.093 C 183.496 123.687,183.094 123.079,182.758 122.743 C 181.799 121.784,181.881 118.590,182.896 117.384 C 183.308 116.894,183.646 116.350,183.646 116.175 C 183.646 115.119,188.695 113.797,189.532 114.633 M186.161 145.616 C 185.811 145.820,185.068 146.241,184.510 146.551 C 181.552 148.198,180.526 152.727,182.603 154.968 C 182.994 155.390,183.423 155.909,183.555 156.120 C 183.975 156.789,186.869 158.092,188.361 158.284 C 190.303 158.534,192.369 159.067,193.098 159.507 C 193.428 159.706,194.374 159.943,195.199 160.034 C 196.024 160.126,197.307 160.469,198.050 160.798 C 198.792 161.126,200.413 161.483,201.650 161.590 C 202.888 161.697,205.746 162.117,208.000 162.525 C 210.255 162.932,214.171 163.390,216.703 163.543 C 219.234 163.695,222.048 164.037,222.956 164.303 C 227.064 165.505,258.159 165.494,262.716 164.290 C 263.706 164.028,266.704 163.700,269.379 163.560 C 274.820 163.277,275.345 163.096,277.419 160.801 L 278.527 159.575 278.423 156.911 C 278.196 151.068,276.112 150.710,252.282 152.420 C 247.099 152.792,234.369 152.806,230.908 152.444 C 229.587 152.306,225.739 152.034,222.356 151.840 C 217.805 151.579,215.747 151.335,214.446 150.902 C 213.479 150.580,211.454 150.196,209.945 150.050 C 208.436 149.904,206.675 149.561,206.031 149.288 C 205.388 149.015,203.632 148.664,202.131 148.509 C 200.629 148.354,198.399 147.945,197.175 147.602 C 195.950 147.258,194.094 146.856,193.050 146.708 C 192.006 146.561,190.646 146.169,190.029 145.838 C 188.762 145.159,187.108 145.064,186.161 145.616 M189.549 146.306 C 189.780 146.622,190.691 146.887,192.190 147.073 C 193.449 147.230,195.113 147.604,195.889 147.906 C 196.665 148.207,198.650 148.615,200.300 148.812 C 201.950 149.009,203.908 149.377,204.651 149.630 C 205.394 149.883,207.289 150.197,208.862 150.327 C 210.780 150.485,212.213 150.787,213.213 151.242 C 214.519 151.837,215.426 151.950,220.559 152.160 C 224.116 152.305,226.767 152.550,227.311 152.783 C 227.968 153.064,231.174 153.195,239.323 153.274 C 249.722 153.376,253.979 153.205,260.015 152.446 C 262.836 152.091,274.559 152.001,275.344 152.328 C 278.109 153.479,279.016 157.951,276.994 160.465 C 276.430 161.167,275.851 161.740,275.707 161.740 C 275.562 161.740,275.079 162.000,274.632 162.317 C 273.934 162.811,272.963 162.934,267.817 163.178 C 263.100 163.403,261.526 163.585,260.465 164.028 C 258.386 164.895,226.370 164.898,224.779 164.031 C 223.959 163.584,222.535 163.395,217.727 163.095 C 214.414 162.887,211.348 162.575,210.913 162.400 C 210.061 162.057,207.018 161.591,202.682 161.140 C 201.186 160.984,199.463 160.648,198.854 160.393 C 198.244 160.139,196.903 159.847,195.872 159.746 C 194.626 159.623,193.780 159.363,193.346 158.970 C 192.887 158.553,191.985 158.299,190.298 158.110 C 188.785 157.941,187.349 157.565,186.405 157.090 C 185.582 156.677,184.767 156.339,184.594 156.339 C 182.895 156.339,181.356 150.245,182.738 148.994 C 183.064 148.699,183.407 148.217,183.500 147.922 C 183.594 147.628,184.076 147.245,184.572 147.073 C 185.069 146.900,185.839 146.471,186.286 146.120 C 187.219 145.386,188.948 145.484,189.549 146.306 " stroke="none" fill="#94948c" fill-rule="evenodd"></path><path id="path4" d="M138.263 18.217 C 138.636 18.289,139.176 18.286,139.463 18.211 C 139.750 18.136,139.445 18.077,138.785 18.080 C 138.125 18.084,137.890 18.145,138.263 18.217 M148.162 18.216 C 148.533 18.288,149.141 18.288,149.512 18.216 C 149.884 18.145,149.580 18.086,148.837 18.086 C 148.095 18.086,147.791 18.145,148.162 18.216 M262.341 28.714 C 262.629 28.789,263.102 28.789,263.391 28.714 C 263.680 28.638,263.443 28.577,262.866 28.577 C 262.288 28.577,262.052 28.638,262.341 28.714 M248.537 29.914 C 248.826 29.990,249.299 29.990,249.587 29.914 C 249.876 29.839,249.640 29.777,249.062 29.777 C 248.485 29.777,248.248 29.839,248.537 29.914 M143.211 40.134 C 144.985 40.187,147.888 40.187,149.662 40.134 C 151.437 40.081,149.985 40.037,146.437 40.037 C 142.888 40.037,141.437 40.081,143.211 40.134 M199.625 40.117 C 199.914 40.192,200.386 40.192,200.675 40.117 C 200.964 40.041,200.728 39.980,200.150 39.980 C 199.572 39.980,199.336 40.041,199.625 40.117 M284.400 40.122 C 284.773 40.194,285.313 40.191,285.600 40.116 C 285.887 40.041,285.581 39.982,284.921 39.986 C 284.261 39.989,284.026 40.050,284.400 40.122 M290.021 150.938 C 290.021 211.590,290.055 236.403,290.098 206.077 C 290.140 175.750,290.140 126.125,290.098 95.799 C 290.055 65.473,290.021 90.285,290.021 150.938 M245.536 42.826 C 245.990 42.894,246.733 42.894,247.187 42.826 C 247.641 42.757,247.269 42.701,246.362 42.701 C 245.454 42.701,245.083 42.757,245.536 42.826 M149.062 52.725 C 149.434 52.796,150.041 52.796,150.413 52.725 C 150.784 52.653,150.480 52.595,149.737 52.595 C 148.995 52.595,148.691 52.653,149.062 52.725 M302.307 75.169 C 302.307 79.625,302.348 81.490,302.400 79.313 C 302.451 77.136,302.451 73.490,302.400 71.211 C 302.349 68.932,302.307 70.713,302.307 75.169 M220.780 70.129 C 221.152 70.201,221.759 70.201,222.131 70.129 C 222.502 70.058,222.198 69.999,221.455 69.999 C 220.713 69.999,220.409 70.058,220.780 70.129 M264.145 70.133 C 264.601 70.202,265.276 70.200,265.646 70.129 C 266.015 70.057,265.641 70.001,264.816 70.003 C 263.991 70.006,263.689 70.064,264.145 70.133 M170.276 97.974 C 170.276 103.091,170.317 105.226,170.367 102.719 C 170.417 100.213,170.417 96.027,170.367 93.417 C 170.317 90.807,170.276 92.858,170.276 97.974 M209.681 100.137 C 210.054 100.209,210.594 100.206,210.881 100.131 C 211.168 100.056,210.863 99.997,210.203 100.001 C 209.542 100.004,209.308 100.065,209.681 100.137 M302.008 152.438 C 302.008 157.307,302.049 159.299,302.100 156.864 C 302.150 154.430,302.150 150.446,302.100 148.012 C 302.049 145.578,302.008 147.569,302.008 152.438 M233.377 152.655 C 233.909 152.721,234.855 152.722,235.477 152.657 C 236.100 152.592,235.664 152.538,234.509 152.537 C 233.353 152.535,232.844 152.588,233.377 152.655 M245.986 152.658 C 246.688 152.721,247.836 152.721,248.537 152.658 C 249.239 152.595,248.665 152.543,247.262 152.543 C 245.859 152.543,245.285 152.595,245.986 152.658 M135.862 266.379 C 136.236 266.451,136.776 266.448,137.063 266.373 C 137.350 266.298,137.044 266.239,136.384 266.242 C 135.724 266.246,135.489 266.307,135.862 266.379 M144.111 266.373 C 144.400 266.449,144.872 266.449,145.161 266.373 C 145.450 266.298,145.214 266.236,144.636 266.236 C 144.059 266.236,143.822 266.298,144.111 266.373 M301.671 270.968 C 301.671 272.041,301.726 272.479,301.792 271.943 C 301.859 271.407,301.859 270.529,301.792 269.992 C 301.726 269.456,301.671 269.895,301.671 270.968 " stroke="none" fill="#949494" fill-rule="evenodd"></path></g></svg>